<?xml version="1.0" standalone="no"?>
<!DOCTYPE svg PUBLIC "-//W3C//DTD SVG 20010904//EN"
 "http://www.w3.org/TR/2001/REC-SVG-20010904/DTD/svg10.dtd">
<svg version="1.0" xmlns="http://www.w3.org/2000/svg"
 width="1000.000000pt" height="1000.000000pt" viewBox="0 0 1000.000000 1000.000000"
 preserveAspectRatio="xMidYMid meet">
<metadata>
Created by potrace 1.11, written by Peter Selinger 2001-2013
</metadata>
<g transform="translate(0.000000,1000.000000) scale(0.100000,-0.100000)"
fill="#000000" stroke="none">
<path d="M9610 7123 c-73 -25 -122 -64 -162 -128 -55 -89 -58 -211 -8 -305 12
-23 11 -26 -82 -132 -31 -35 -171 -198 -313 -363 -141 -165 -274 -319 -294
-342 -20 -24 -40 -43 -44 -43 -5 0 -104 82 -220 182 -117 101 -223 192 -237
204 -88 76 -81 65 -66 109 79 224 -117 448 -346 395 -183 -42 -286 -247 -207
-415 l21 -45 -25 -33 c-14 -17 -38 -46 -54 -63 -15 -17 -50 -57 -78 -90 -27
-32 -58 -68 -68 -79 -10 -11 -33 -37 -50 -58 -38 -46 -46 -56 -114 -133 -28
-32 -95 -110 -148 -171 -94 -110 -111 -123 -130 -104 -31 30 -199 50 -251 31
-11 -5 -25 -5 -30 -2 -6 4 -41 77 -79 162 -37 85 -85 192 -107 238 -21 46 -38
85 -38 88 0 2 -18 44 -41 92 -22 48 -52 114 -66 147 -14 33 -42 96 -62 140
-21 44 -60 131 -87 192 l-49 113 -435 0 -435 -1 -165 -372 c-90 -205 -184
-414 -207 -465 -24 -51 -43 -95 -43 -97 0 -3 -14 -35 -31 -72 -17 -38 -37 -81
-44 -98 -7 -16 -26 -57 -40 -90 -15 -33 -100 -224 -190 -425 -89 -201 -174
-390 -188 -420 -13 -30 -80 -179 -147 -330 -67 -151 -135 -303 -151 -338 -16
-34 -29 -64 -29 -66 0 -3 -15 -37 -34 -78 -18 -40 -48 -107 -66 -148 -18 -41
-43 -97 -55 -125 -24 -51 -143 -319 -175 -390 -9 -22 -33 -76 -53 -120 -38
-85 -59 -137 -58 -144 2 -8 883 -3 891 5 5 5 32 65 60 134 29 69 58 139 65
155 7 17 58 138 112 270 l99 240 876 1 877 1 31 -76 c17 -42 47 -114 67 -161
19 -47 81 -195 136 -329 l102 -244 453 0 c249 1 455 3 458 5 4 4 -44 119 -107
256 -10 23 -28 61 -38 85 -11 23 -67 148 -124 277 -174 392 -318 712 -347 775
-62 135 -190 425 -190 432 0 3 -8 16 -17 27 -10 12 -14 18 -9 14 13 -11 101
72 137 128 41 66 58 140 56 233 -3 78 -7 96 -37 157 -19 38 -36 72 -38 76 -2
5 218 270 248 298 3 3 30 34 60 70 30 36 57 67 60 70 3 3 43 50 90 105 47 55
89 105 95 111 5 6 25 28 43 48 29 33 37 37 60 31 60 -17 177 -14 221 6 l43 19
91 -78 c51 -42 107 -91 127 -108 19 -18 89 -78 156 -135 66 -57 157 -137 202
-176 45 -40 84 -73 85 -73 2 0 62 69 133 153 70 83 131 154 134 157 4 4 204
235 396 460 12 14 41 48 65 75 24 28 61 71 83 96 l38 46 42 -14 c25 -9 66 -13
106 -11 300 17 386 417 121 562 -64 34 -162 42 -231 19z m-3765 -1543 c53
-129 103 -248 110 -265 12 -27 128 -309 252 -610 25 -60 61 -146 80 -190 19
-44 36 -87 38 -95 3 -13 -68 -15 -591 -15 -327 0 -594 1 -594 3 0 1 49 120
109 265 60 144 146 352 191 462 45 110 90 218 100 240 9 22 57 136 105 253 53
127 91 208 96 200 4 -7 50 -119 104 -248z"/>
<path d="M1958 6775 c-2 -1 -46 -5 -98 -8 -52 -4 -108 -8 -125 -11 -16 -3 -61
-10 -100 -17 -38 -6 -97 -18 -130 -26 -33 -8 -67 -16 -75 -18 -27 -6 -194 -62
-240 -81 -83 -35 -264 -129 -336 -176 -352 -230 -613 -565 -747 -958 -47 -136
-50 -150 -83 -330 -18 -95 -27 -481 -14 -565 4 -27 11 -72 14 -100 21 -155 88
-367 171 -540 113 -234 270 -436 470 -604 159 -134 295 -217 515 -313 106 -47
356 -117 475 -134 28 -3 59 -8 70 -10 141 -28 570 -22 735 11 258 50 383 91
570 185 150 75 185 97 310 194 68 52 240 220 257 251 8 14 -9 35 -106 124 -64
58 -125 115 -137 126 -48 46 -242 224 -273 252 l-34 30 -78 -77 c-78 -79 -162
-147 -234 -191 -70 -42 -80 -48 -95 -54 -8 -4 -26 -13 -40 -20 -28 -15 -165
-62 -204 -70 -14 -3 -36 -7 -48 -10 -13 -2 -36 -7 -53 -10 -66 -14 -312 -13
-405 1 -481 73 -836 387 -960 847 -30 113 -35 170 -34 372 1 199 17 292 76
449 155 404 518 677 963 723 412 43 756 -76 1038 -359 37 -37 71 -68 75 -68 4
0 34 26 68 58 33 31 102 95 153 142 127 116 224 205 289 266 l54 50 -82 87
c-312 329 -753 531 -1255 572 -71 6 -313 13 -317 10z"/>
<path d="M8274 5315 c-2 -5 -2 -545 -1 -1199 l2 -1189 430 1 c237 0 433 1 438
1 4 1 7 540 7 1199 l0 1198 -436 -1 c-282 0 -438 -4 -440 -10z"/>
</g>
</svg>
