<svg xmlns="http://www.w3.org/2000/svg" viewBox="0 0 750 500"><title>bkg1svg</title><g id="BACKGROUND"><rect width="750" height="500" fill="#93e3ef"/></g><g id="OBJECT"><path d="M187.34,106.15c34.52,6.7,66.8,21.87,100.74,31s72,11.82,102.66-5.48c16.79-9.5,29.91-24.18,43.45-37.93s28.45-27.16,46.85-33,41.13-2,52.4,13.66c10.23,14.2,8.9,34.15,18.42,48.83,15.57,24,50.43,22.9,76.4,34.85,36,16.57,53.74,61.38,45.91,100.25s-37,71-71.61,90.35-74.35,27.42-113.7,32.31A805,805,0,0,1,337,385.5c-46.77-3.06-93.82-10.37-137-28.64s-82.44-48.29-105.54-89.07c-17.53-31-24.83-68.38-18-103.47,6.2-31.61,15.35-49,48.42-57.52C145.27,101.58,166.9,102.18,187.34,106.15Z" fill="#82d7e0"/><path d="M610.62,125c7.25.17,14.77-1.68,20.3-6.38,8.49-7.23,10.64-20,7.8-30.74-5.81-22.11-30.6-36.75-52.87-30.34-21.41,6.16-19.74,34.36-9.07,49.39A43.47,43.47,0,0,0,610.62,125Z" fill="#82d7e0"/><path d="M298.88,121.57c-6.1-2.15-12.15-5.16-16.16-10.24s-5.42-12.61-2-18.06c2.72-4.28,7.72-6.44,12.42-8.35l41.82-17c7.85-3.19,15.82-6.42,24.23-7.44,18.22-2.21,42.88,14.81,32.45,35.31-9.14,17.94-36.73,27.57-55.22,29.77A83.57,83.57,0,0,1,298.88,121.57Z" fill="#82d7e0"/><polygon points="458.17 205.9 442.28 205.9 427.79 205.9 412.29 205.9 400.85 205.9 380.13 375.01 404.43 375.01 429.47 231.36 433.77 231.36 431.06 375.01 455.36 375.01 465.11 205.9 458.17 205.9" fill="#3e4870"/><polygon points="458.17 205.9 442.28 205.9 427.79 205.9 412.29 205.9 400.85 205.9 380.13 375.01 404.43 375.01 429.47 231.36 433.77 231.36 431.06 375.01 455.36 375.01 465.11 205.9 458.17 205.9" fill="#6ca8bc"/><path d="M402.53,375H382l-1.59,3.29a11.61,11.61,0,0,1-6,5.67,11.61,11.61,0,0,0-6.08,5.88h32.8Z" fill="#422c4f"/><path d="M368.31,389.85a11.1,11.1,0,0,0-.63,1.66l-.85,3h33.83l.45-4.68Z" fill="#454f6b"/><path d="M463,382.79a15.92,15.92,0,0,1-9.94-7.55l-.13-.23H432.84l-1.9,14.84h41.69A16,16,0,0,0,463,382.79Z" fill="#422c4f"/><path d="M472.63,389.85H430.94l-.59,4.68h44.42l-.91-2.26A16.17,16.17,0,0,0,472.63,389.85Z" fill="#454f6b"/><path d="M458.16,205.9H400.85l-5.92,48.33a53.81,53.81,0,0,0,28.84,9.83l5.7-32.7h4.3l-.62,32.77h5.44A55.48,55.48,0,0,0,462.05,259l3.05-53.07Z" fill="#5195a8"/><path d="M410.77,318.14a42.23,42.23,0,0,1-5.72-3.13,35.58,35.58,0,0,1-5.63-4.59,36,36,0,0,1-4.57-5.64,41.72,41.72,0,0,1-3.13-5.73,19.78,19.78,0,0,0,1.9,6.43,23.42,23.42,0,0,0,10.73,10.75A19.77,19.77,0,0,0,410.77,318.14Z" fill="#5195a8"/><path d="M412.2,307.36c-1.57.33-3.36.87-5.17,1.36s-3.63.95-5.14,1.47a9.62,9.62,0,0,0,10.31-2.83Z" fill="#5195a8"/><path d="M454.42,323.47a41.87,41.87,0,0,1-5.87-2.57,35.59,35.59,0,0,1-10.93-9,41.56,41.56,0,0,1-3.61-5.29,19.51,19.51,0,0,0,2.49,6.08A23.28,23.28,0,0,0,448,322.16,19.85,19.85,0,0,0,454.42,323.47Z" fill="#5195a8"/><path d="M443.22,314.15a24,24,0,0,0,14.11-18.28,48.78,48.78,0,0,1-14.11,18.28Z" fill="#5195a8"/><path d="M395.19,127.69h0A13,13,0,0,0,385,137.23l-12.32,47.88,26.27.41Z" fill="#6ca8bc"/><path d="M399,185.52l-3.28-50h0a123.35,123.35,0,0,0-4.13,24.06l-1.81,25.83Z" fill="#5195a8"/><polygon points="376.6 185.17 374.5 193.51 369.54 240.85 380.13 240.85 387.46 194.08 389.77 185.38 376.6 185.17" fill="#f0bf9c"/><path d="M386,249.12a8.27,8.27,0,0,0-2.83-5.64l-3.05-2.63,1.75-6.11H369.79l-.25,6.11-1.65,7.83a6.63,6.63,0,0,0,3.35,7.21l1.25.67a6.66,6.66,0,0,1,3.08,3.51h0a2.28,2.28,0,0,0,4.39-.45l1.7-10.57,1.45,4.45a3.79,3.79,0,0,0,3.42,2.61Z" fill="#fdf7e7"/><polygon points="376.6 185.17 389.77 185.38 388.59 189.82 376.37 186.07 376.6 185.17" fill="#422c4f"/><path d="M469.86,127.69h0A13,13,0,0,1,480,137.23l12.33,47.88-26.27.41Z" fill="#6ca8bc"/><path d="M466.07,185.52l3.28-50h0a122.58,122.58,0,0,1,4.12,24.06l1.82,25.83Z" fill="#5195a8"/><polygon points="488.46 185.17 490.56 193.51 495.52 240.85 484.92 240.85 477.59 194.08 475.29 185.38 488.46 185.17" fill="#f0bf9c"/><path d="M479,249.12a8.24,8.24,0,0,1,2.84-5.64l3-2.63-1.75-6.11h12.09l.26,6.11,1.65,7.83a6.64,6.64,0,0,1-3.35,7.21l-1.26.67a6.64,6.64,0,0,0-3.07,3.51h0a2.29,2.29,0,0,1-4.4-.45l-1.69-10.57L482,253.51a3.81,3.81,0,0,1-3.42,2.61Z" fill="#fdf7e7"/><polygon points="488.46 185.17 475.29 185.38 476.46 189.82 488.68 186.07 488.46 185.17" fill="#422c4f"/><path d="M466.07,185.52l3.79-57.83-30.09-6.56-7.24-.54-7.24.54-30.1,6.56,3.8,57.83-9.22,56.09,2.8,1.94a53.66,53.66,0,0,0,33.89,11.71h12.13a53.7,53.7,0,0,0,33.9-11.71h0Z" fill="#6ca8bc"/><path d="M457.64,229.12a13.84,13.84,0,0,1-6.48,2.62,35.82,35.82,0,0,1-7.79.21A57.37,57.37,0,0,1,427,228.21a85.68,85.68,0,0,1-15.1-7.7c-4.61-2.92-8.77-6-12.37-8.62A92.63,92.63,0,0,0,411,221.81a66.22,66.22,0,0,0,15.24,8.37,49,49,0,0,0,17.1,3.34,31,31,0,0,0,8-.88A13,13,0,0,0,457.64,229.12Z" fill="#5195a8"/><path d="M460.37,212.76a55.69,55.69,0,0,1-7.12,4.81,50.6,50.6,0,0,1-18.27,6.2,56.21,56.21,0,0,1-8.58.51,35.47,35.47,0,0,0,8.67.39,40.46,40.46,0,0,0,9.73-2,39.5,39.5,0,0,0,8.92-4.35A35,35,0,0,0,460.37,212.76Z" fill="#5195a8"/><path d="M409.8,169.12a54.5,54.5,0,0,0,13.87-.44,60,60,0,0,0,28.72-12.87A54.24,54.24,0,0,0,462,145.75a83.11,83.11,0,0,1-10.43,8.92,76.3,76.3,0,0,1-28.12,12.59A82.71,82.71,0,0,1,409.8,169.12Z" fill="#5195a8"/><path d="M442.79,157.73a63.52,63.52,0,0,1-10.69,0,58.17,58.17,0,0,1-22.94-6.95,64.37,64.37,0,0,1-8.89-5.92,41.38,41.38,0,0,0,8.33,6.88A46.11,46.11,0,0,0,432,158.84,41.7,41.7,0,0,0,442.79,157.73Z" fill="#5195a8"/><path d="M459.65,185.53a73.18,73.18,0,0,1-11.77,3.17,66.81,66.81,0,0,1-27.35-.73,73.31,73.31,0,0,1-11.59-3.8,47.77,47.77,0,0,0,11.26,5,53,53,0,0,0,27.94.75A47.9,47.9,0,0,0,459.65,185.53Z" fill="#5195a8"/><path d="M427,120.08a14.55,14.55,0,0,0-11,12.18l-.21,1.51a73.25,73.25,0,0,0-.22,18.3l1.07,9.44,1.52-.17-1.07-9.45a71.57,71.57,0,0,1,.21-17.91l.21-1.51a13,13,0,0,1,9.84-10.91l.93-.23-.36-1.48Z" fill="#495375"/><path d="M446.11,133.68l-.4-4.71a10.07,10.07,0,0,0-8-9l-.45-.09-.32,1.49.46.1a8.53,8.53,0,0,1,6.77,7.66l.41,4.68a8.65,8.65,0,0,0-7.29,8.52v2.55h1.53V142.3a7.11,7.11,0,0,1,14.22,0v2.55h1.52V142.3A8.63,8.63,0,0,0,446.11,133.68Z" fill="#495375"/><circle cx="417.79" cy="164.36" r="5.01" fill="#e4e4e0"/><circle cx="417.79" cy="164.36" r="3.74" fill="#d4cfbe"/><circle cx="417.79" cy="164.36" r="2.17" fill="#a59b95"/><path d="M441.24,162.27a3.63,3.63,0,0,1-3.62-3.63V144.85h.76v13.79a2.87,2.87,0,0,0,2.86,2.86Z" fill="#d4cfbe"/><path d="M442.2,161.2l-.83.1a.15.15,0,0,0-.13.15v.84a.15.15,0,0,0,.13.15l.83.1a.68.68,0,1,0,0-1.34Z" fill="#a59b95"/><path d="M450.63,162.27a3.64,3.64,0,0,0,3.63-3.63V144.85h-.77v13.79a2.86,2.86,0,0,1-2.86,2.86Z" fill="#d4cfbe"/><path d="M449.67,161.2l.83.1a.15.15,0,0,1,.13.15v.84a.15.15,0,0,1-.13.15l-.83.1a.68.68,0,1,1,0-1.34Z" fill="#a59b95"/><path d="M426.21,109V125.2c0,1.38,2.83,2.49,6.32,2.49s6.32-1.11,6.32-2.49V109Z" fill="#f0bf9c"/><path d="M426.21,109v8.38a7.11,7.11,0,0,0,5.17,2.45h2.29a7.13,7.13,0,0,0,5.18-2.45V109Z" fill="#422c4f"/><path d="M443,99H422a8.2,8.2,0,0,1-8.2-8.19V97a8.2,8.2,0,0,0,8.2,8.2h21a8.19,8.19,0,0,0,8.19-8.2v-6.1A8.19,8.19,0,0,1,443,99Z" fill="#5195a8"/><path d="M432.53,65.84a18.71,18.71,0,0,0-18.71,18.71v6.3A8.2,8.2,0,0,0,422,99h21a8.19,8.19,0,0,0,8.19-8.19v-6.3A18.71,18.71,0,0,0,432.53,65.84Z" fill="#6ca8bc"/><path d="M432.53,115.73h0a14.44,14.44,0,0,1-14.44-14.43V92.46a9.25,9.25,0,0,1,9.25-9.25h10.38A9.25,9.25,0,0,1,447,92.46v8.84A14.43,14.43,0,0,1,432.53,115.73Z" fill="#f0bf9c"/><path d="M445.41,102.32v-1.88c-8.13-.53-10-3.49-12.88-3.49s-4.75,3-12.89,3.49v1.88c7.88-.76,9.85-3.69,12.89-3.69S437.53,101.56,445.41,102.32Z" fill="#fff"/><path d="M432.53,98.63c-3,0-5,2.93-12.89,3.69v3A11.62,11.62,0,0,0,431,117.19h3.05a11.62,11.62,0,0,0,11.36-11.87v-3C437.53,101.56,435.57,98.63,432.53,98.63Z" fill="#fdf7e7"/><path d="M425.41,87.17a6,6,0,0,0-4.61,2.75l9.58-.73A6,6,0,0,0,425.41,87.17Z" fill="#8c404c"/><path d="M426.83,92.4a1.24,1.24,0,1,1-1.24-1.24A1.25,1.25,0,0,1,426.83,92.4Z" fill="#422c4f"/><path d="M439.65,87.17a6,6,0,0,1,4.61,2.75l-9.58-.73A6,6,0,0,1,439.65,87.17Z" fill="#8c404c"/><path d="M438.23,92.4a1.24,1.24,0,1,0,1.24-1.24A1.24,1.24,0,0,0,438.23,92.4Z" fill="#422c4f"/><polygon points="205.08 204.69 189.1 204.69 174.51 204.69 158.91 204.69 150.1 204.69 144.38 374.89 168.83 374.89 173.99 230.32 189.66 230.32 195.63 374.89 220.08 374.89 213.55 204.69 205.08 204.69" fill="#3e4870"/><path d="M167.09,374.89H146.41l-1.6,3.31a11.63,11.63,0,0,1-6,5.7,11.72,11.72,0,0,0-6.12,5.92h36Z" fill="#422c4f"/><path d="M132.65,389.82a12,12,0,0,0-.63,1.67l-.86,3h38l-.45-4.71Z" fill="#422c4f"/><path d="M198.64,374.89h20.68l1.6,3.31a11.63,11.63,0,0,0,6,5.7,11.72,11.72,0,0,1,6.12,5.92h-36Z" fill="#422c4f"/><path d="M233.08,389.82a10.82,10.82,0,0,1,.63,1.67l.86,3H196.62l.45-4.71Z" fill="#422c4f"/><polygon points="213.58 212.76 150.1 212.76 151.18 158.74 155.17 128.49 207.88 128.49 212.02 158.71 213.58 212.76" fill="#6bc5ff"/><polygon points="189.66 230.32 184.88 230.32 178.98 230.32 173.99 230.32 172.03 285.88 178.25 285.88 181.99 258.1 185.74 285.88 191.96 285.88 189.66 230.32" fill="#d9d9d9"/><polygon points="174.55 128.49 158.42 295.87 138.97 295.87 151.18 155.84 155.17 128.49 174.55 128.49" fill="#fff"/><path d="M174.55,128.49l-12.44,11.28a5,5,0,0,0,.25,7.6l2.38,1.88-5.52,5.09a5,5,0,0,0-1.29,5.4l10.81,29Z" fill="#d9d9d9"/><path d="M174.55,128.49l-10.61,12.23a4.16,4.16,0,0,0,.41,5.86l3.09,2.67L161,155.81a4.13,4.13,0,0,0-1,4.1l8.71,28.85Z" fill="#fff"/><polygon points="188.5 128.49 204.63 295.87 224.09 295.87 211.88 155.84 207.89 128.49 188.5 128.49" fill="#fff"/><path d="M188.5,128.49l12.44,11.28a5,5,0,0,1-.25,7.6l-2.38,1.88,5.52,5.09a5,5,0,0,1,1.29,5.4l-10.81,29Z" fill="#d9d9d9"/><path d="M188.5,128.49l10.61,12.23a4.16,4.16,0,0,1-.41,5.86l-3.09,2.67,6.41,6.56a4.16,4.16,0,0,1,1,4.1l-8.72,28.85Z" fill="#fff"/><polygon points="125.43 239.09 144.38 236.58 143.75 224.69 124.74 227.01 125.43 239.09" fill="#fff"/><path d="M151.18,155.84l4-27.35a15.13,15.13,0,0,0-14,9.48l-15.34,38.12a41.66,41.66,0,0,0-3,18l1.9,32.92,19-2.32L142,190.88Z" fill="#fff"/><polygon points="129.41 238.56 127.49 251.2 137.24 254.62 138.97 258.58 142.67 258.58 143.61 250.33 147.27 248.57 143.07 236.75 129.41 238.56" fill="#f2c9ad"/><path d="M143.61,250.33,142,241.45l.67.7a6.75,6.75,0,0,1,.9,8.18Z" fill="#eba58e"/><polygon points="143.07 236.75 129.41 238.56 128.79 242.65 143.07 236.75" fill="#402c49"/><path d="M151.18,155.84l2.49-17.06-2.17,5a41,41,0,0,0-3,22.23h0Z" fill="#d9d9d9"/><polygon points="237.62 239.09 218.68 236.58 219.31 224.69 238.32 227.01 237.62 239.09" fill="#fff"/><path d="M211.88,155.84l-4-27.35a15.12,15.12,0,0,1,14,9.48l15.35,38.12a42,42,0,0,1,2.95,18L238.32,227l-19-2.32,1.77-33.81Z" fill="#fff"/><polygon points="233.65 238.56 235.57 251.2 225.82 254.62 224.09 258.58 220.39 258.58 219.45 250.33 215.79 248.57 219.98 236.75 233.65 238.56" fill="#f2c9ad"/><path d="M219.45,250.33l1.56-8.88-.66.7a6.72,6.72,0,0,0-.9,8.18Z" fill="#eba58e"/><polygon points="219.98 236.75 233.65 238.56 234.27 242.65 219.98 236.75" fill="#402c49"/><path d="M211.88,155.84l-2.49-17.06,2.16,5a40.94,40.94,0,0,1,3,22.23h0Z" fill="#d9d9d9"/><path d="M175.59,124.69a14.52,14.52,0,0,0-11,12.18l-.21,1.51a73.73,73.73,0,0,0-.23,18.3l1.08,9.45,1.51-.18-1.07-9.44a72.12,72.12,0,0,1,.22-17.92l.21-1.51a13,13,0,0,1,9.83-10.9l.94-.23-.36-1.49Z" fill="#495375"/><path d="M194.67,138.29l-.41-4.71a10.07,10.07,0,0,0-8-9l-.46-.09-.31,1.49.45.1a8.54,8.54,0,0,1,6.78,7.67l.41,4.68a8.63,8.63,0,0,0-7.29,8.52v2.54h1.52v-2.54a7.11,7.11,0,0,1,14.22,0v2.54h1.53v-2.54A8.64,8.64,0,0,0,194.67,138.29Z" fill="#495375"/><path d="M171.36,169a5,5,0,1,1-5-5A5,5,0,0,1,171.36,169Z" fill="#e4e4e0"/><circle cx="166.34" cy="168.97" r="3.74" fill="#d4cfbe"/><circle cx="166.34" cy="168.97" r="2.17" fill="#a59b95"/><path d="M189.8,166.88a3.63,3.63,0,0,1-3.62-3.63V149.46h.76v13.79a2.87,2.87,0,0,0,2.86,2.87Z" fill="#d4cfbe"/><path d="M190.76,165.81l-.83.1a.15.15,0,0,0-.13.15v.85a.15.15,0,0,0,.13.14l.83.1a.68.68,0,1,0,0-1.34Z" fill="#a59b95"/><path d="M199.19,166.88a3.63,3.63,0,0,0,3.62-3.63V149.46h-.76v13.79a2.87,2.87,0,0,1-2.86,2.87Z" fill="#d4cfbe"/><path d="M198.23,165.81l.83.1a.15.15,0,0,1,.13.15v.85a.15.15,0,0,1-.13.14l-.83.1a.68.68,0,1,1,0-1.34Z" fill="#a59b95"/><polygon points="188.5 128.49 181.53 137.55 174.55 128.49 174.55 106.66 188.5 106.66 188.5 128.49" fill="#f2c9ad"/><path d="M174.55,106.66v12.73a9.87,9.87,0,0,0,13.95,0V106.66Z" fill="#402c49"/><path d="M170.24,104.92a5.91,5.91,0,1,1-5.91-5.9A5.91,5.91,0,0,1,170.24,104.92Z" fill="#f2c9ad"/><path d="M167.44,104.92a3.11,3.11,0,1,1-3.11-3.11A3.11,3.11,0,0,1,167.44,104.92Z" fill="#eba58e"/><path d="M192.82,104.92a5.91,5.91,0,1,0,5.91-5.9A5.9,5.9,0,0,0,192.82,104.92Z" fill="#f2c9ad"/><path d="M195.62,104.92a3.11,3.11,0,1,0,3.11-3.11A3.11,3.11,0,0,0,195.62,104.92Z" fill="#eba58e"/><rect x="164.74" y="72.93" width="33.58" height="46.18" rx="16.79" ry="16.79" fill="#f2c9ad"/><path d="M174.17,95.41a1.1,1.1,0,0,0-1.1,1.1v1.41a1.1,1.1,0,1,0,2.19,0V96.51A1.09,1.09,0,0,0,174.17,95.41Z" fill="#402c49"/><path d="M187,108.57a23.81,23.81,0,0,1-10.59.11,5.65,5.65,0,0,0,3,3.82,5.48,5.48,0,0,0,4.76.1A5.94,5.94,0,0,0,187,108.57Z" fill="#fff"/><path d="M173.08,90.86a5.63,5.63,0,0,0-4.19,2.76l8.92-1.09A5.64,5.64,0,0,0,173.08,90.86Z" fill="#6a3649"/><path d="M188.89,95.41a1.1,1.1,0,0,1,1.1,1.1v1.41a1.1,1.1,0,1,1-2.2,0V96.51A1.1,1.1,0,0,1,188.89,95.41Z" fill="#402c49"/><path d="M190,90.86a5.63,5.63,0,0,1,4.19,2.76l-8.92-1.09A5.64,5.64,0,0,1,190,90.86Z" fill="#6a3649"/><path d="M202.73,78.17a12.84,12.84,0,0,0-1.38-3,17.84,17.84,0,0,0-8-6.54c-3.66-1.63-8.41-3.09-12.45-2.68s-8.07,2.46-10,5.67a11.34,11.34,0,0,0-9,4.15,13.4,13.4,0,0,0-2.57,8.59,38.83,38.83,0,0,0,1.56,8.9,93.72,93.72,0,0,0,4,10.6L167.12,87a12.57,12.57,0,0,0,6.07,2.15,4.1,4.1,0,0,0,2.31-.36,1.88,1.88,0,0,0,1-1.6,2.11,2.11,0,0,0-.85-1.8,17.17,17.17,0,0,0,6.77,3.17c1.15.26,2.54.34,3.36-.41A2.07,2.07,0,0,0,186.2,86,6.56,6.56,0,0,0,185,84,11.83,11.83,0,0,0,189,87a8,8,0,0,0,5,.66,6.4,6.4,0,0,0,2.78-1.32c0,.22.06.43.09.62l1.36,17.21a113.87,113.87,0,0,0,4.14-11,43.38,43.38,0,0,0,1.38-8.9A16.66,16.66,0,0,0,202.73,78.17Z" fill="#6a3649"/><path d="M183.83,103.32l-4.44-.07a2.54,2.54,0,0,0,2.15,1.83A2.65,2.65,0,0,0,183.83,103.32Z" fill="#eba58e"/><path d="M194.41,104.81v-1.88c-8.13-.53-10-3.48-12.88-3.48s-4.75,3-12.89,3.48v1.88c7.88-.76,9.85-3.69,12.89-3.69S186.53,104.05,194.41,104.81Z" fill="#fff"/><path d="M181.53,101.12c-3,0-5,2.93-12.89,3.69v3A11.62,11.62,0,0,0,180,119.68h3.05a11.62,11.62,0,0,0,11.36-11.87v-3C186.53,104.05,184.57,101.12,181.53,101.12Z" fill="#fdf7e7"/><path d="M545.67,209h53.89l20.22,118.72a198,198,0,0,1,2.81,33.24v12.46a2.29,2.29,0,0,1-2.29,2.29h-18a5.76,5.76,0,0,1-5.23-3.35L594.22,366a134.39,134.39,0,0,1-11.63-42.9l-8.85-89.08h-5.81l7.51,101.52a116.06,116.06,0,0,1-.88,25.13l-1.76,12.08a3.36,3.36,0,0,1-3.32,2.88H552.57a6.19,6.19,0,0,1-5.72-3.83l-.64-1.53A115.65,115.65,0,0,1,537.38,326V209Z" fill="#fff"/><path d="M537.38,209h62.18a17.49,17.49,0,0,0,3.92-13.77l-8.88-60.88H543l-9.24,61.08a17.48,17.48,0,0,0,3.63,13.53Z" fill="#fff"/><path d="M552.7,375.67l-7,6.95a20.3,20.3,0,0,1-5.54,3h0a19.91,19.91,0,0,0-10.25,8.22l-.42.67h42.4l-2.18-18.86Z" fill="#5195a8"/><path d="M603.21,375.67l-7,6.95a20,20,0,0,1-5.54,3h0a19.91,19.91,0,0,0-10.25,8.22l-.41.67h42.4l-2.19-18.86Z" fill="#5195a8"/><path d="M573.27,234.06h0a23.44,23.44,0,0,1-6.3-15.28l-.29-9.82h0a25.33,25.33,0,0,1-5.55-18.73l6.11-55.92h-5.35l-6.11,55.92A25.33,25.33,0,0,0,561.33,209h0l.29,9.82a23.4,23.4,0,0,0,6.31,15.28h5.34Z" fill="#6ca8bc"/><path d="M547.82,134.31h41.54l-9.38,2a61,61,0,0,1-32.16-2Z" fill="#6ca8bc"/><g opacity="0.3"><path d="M593,208.78c-3.79,0-8.09.07-12.64-.08s-9.35-.47-14.12-1-9.52-1.36-14-2.27-8.63-1.93-12.31-2.83a57.46,57.46,0,0,0,11.6,5.44,69,69,0,0,0,28.9,3.38A57.4,57.4,0,0,0,593,208.78Z" fill="#454f6b"/><path d="M592.49,169.34c-3.3,1.9-7.06,4-11.18,5.92a103.73,103.73,0,0,1-26.87,8.49c-4.47.79-8.75,1.24-12.54,1.58a48,48,0,0,0,12.83,1.11,56.56,56.56,0,0,0,27.9-8.81A48,48,0,0,0,592.49,169.34Z" fill="#454f6b"/><path d="M580.52,174.38a113,113,0,0,1-18.4-1.2,111.54,111.54,0,0,1-17.86-4.57A36.64,36.64,0,0,0,552,172.9a43.75,43.75,0,0,0,9.74,2.73,44.37,44.37,0,0,0,10.11.43A36.53,36.53,0,0,0,580.52,174.38Z" fill="#454f6b"/><path d="M568.9,318.87A97.34,97.34,0,0,1,542.4,302a18.55,18.55,0,0,0,3.15,7.42,24,24,0,0,0,15.29,9.76A18.7,18.7,0,0,0,568.9,318.87Z" fill="#454f6b"/><path d="M587.74,319a16.78,16.78,0,0,0,6.71-.26,21.34,21.34,0,0,0,7-3.07,21.71,21.71,0,0,0,5.51-5.33,16.67,16.67,0,0,0,2.78-6.11c-3.2,2.45-6.79,5.36-10.64,7.93S591.22,316.92,587.74,319Z" fill="#454f6b"/><path d="M600.73,309.38c-2.53-.7-5.55-1.26-8.55-1.94s-6-1.42-8.56-1.87a15.48,15.48,0,0,0,17.11,3.81Z" fill="#454f6b"/></g><path d="M522.3,217.56l-8.22,1-.51-.57a10.08,10.08,0,0,1-2.56-6.39l-.37-12.35a41.59,41.59,0,0,1,3-16.76l15.58-38.73a15.13,15.13,0,0,1,14-9.48l-4,27.35-9.21,35,2.27,12a10,10,0,0,1-1.79,7.83h0Z" fill="#fff"/><polygon points="531.15 242.58 517.49 244.38 514.08 218.59 530.53 216.53 531.15 242.58" fill="#f7dd8c"/><path d="M517.49,244.38l-1.62,10.69a2.37,2.37,0,0,0,1.57,2.61l6.89,2.42a2.36,2.36,0,0,1,1.4,1.3l.69,1.57a2.38,2.38,0,0,0,2.19,1.44h0a2.39,2.39,0,0,0,2.38-2.12l.7-6.13,2.24-1.08a3.45,3.45,0,0,0,1.52-4.78l-4.3-7.72Z" fill="#f7dd8c"/><path d="M531.69,256.16l-1.57-8.88.67.69a6.76,6.76,0,0,1,.9,8.19Z" fill="#efb96d"/><path d="M539.26,161.66l2.49-17.06-2.17,5a41.06,41.06,0,0,0-3,22.24h0Z" fill="#d9d9d9"/><path d="M615.55,217.56l8.22,1,.52-.57a10.07,10.07,0,0,0,2.55-6.39l.37-12.35a41.58,41.58,0,0,0-3-16.76l-15.59-38.73a15.12,15.12,0,0,0-14-9.48l4,27.35,9.2,35-2.27,12a10,10,0,0,0,1.8,7.83h0Z" fill="#fff"/><polygon points="606.7 242.58 620.37 244.38 623.77 218.59 607.33 216.53 606.7 242.58" fill="#f7dd8c"/><path d="M620.37,244.38,622,255.07a2.39,2.39,0,0,1-1.58,2.61l-6.89,2.42a2.39,2.39,0,0,0-1.4,1.3l-.69,1.57a2.38,2.38,0,0,1-2.19,1.44h0a2.39,2.39,0,0,1-2.38-2.12l-.7-6.13-2.24-1.08a3.44,3.44,0,0,1-1.51-4.78l4.29-7.72Z" fill="#f7dd8c"/><path d="M606.16,256.16l1.57-8.88-.67.69a6.76,6.76,0,0,0-.9,8.19Z" fill="#efb96d"/><path d="M598.6,161.66l-2.49-17.06,2.16,5a41.06,41.06,0,0,1,3,22.24h0Z" fill="#d9d9d9"/><polygon points="623.77 218.59 623.77 218.59 615.55 217.56 623.77 218.59" fill="#fff"/><path d="M547.82,134.31l1.7-37.43a17.8,17.8,0,0,1,17.78-17h0A17.8,17.8,0,0,1,585,95.68l4.38,38.63Z" fill="#fff"/><path d="M561.89,122.08h0a11,11,0,0,1-11-11V105a11,11,0,0,1,11-11h0a11,11,0,0,1,11,11v6.12A11,11,0,0,1,561.89,122.08Z" fill="#eba58e"/><path d="M571.5,99.31H552.28a3.1,3.1,0,0,0-3.11,3.1v3.88a4.14,4.14,0,0,0,4.14,4.14h2.62a4.14,4.14,0,0,0,3.93-2.83h0a1.36,1.36,0,0,1,2.59,0h0a4.15,4.15,0,0,0,3.93,2.83h4.09a4.14,4.14,0,0,0,4.14-4.14v-3.88A3.1,3.1,0,0,0,571.5,99.31Z" fill="#d1f4f5"/><path d="M568.49,99.31H549.27a3.1,3.1,0,0,0-3.11,3.1v3.88a4.14,4.14,0,0,0,4.14,4.14h2.62a4.15,4.15,0,0,0,3.93-2.83h0a1.36,1.36,0,0,1,2.59,0h0a4.15,4.15,0,0,0,3.93,2.83h4.09a4.13,4.13,0,0,0,4.13-4.14v-3.88A3.1,3.1,0,0,0,568.49,99.31Z" fill="#e7faf9"/><path d="M568.59,116c0,5.39-3.63,8.65-8.1,8.65s-8.1-3.26-8.1-8.65,3.16-7.31,7.63-7.31S568.59,110.64,568.59,116Z" fill="#e4e4e0"/><path d="M563.34,110a7.08,7.08,0,0,1,1.21,3.94,7.63,7.63,0,0,1-7.84,7.4,8.09,8.09,0,0,1-4.56-1.39,7.94,7.94,0,0,0,6.63,3.46,7.63,7.63,0,0,0,7.85-7.39A7.26,7.26,0,0,0,563.34,110Z" fill="#d4cfbe"/><path d="M564.55,114a7.08,7.08,0,0,0-1.21-3.94,8.1,8.1,0,0,0-4.56-1.38,7.64,7.64,0,0,0-7.85,7.4,7,7,0,0,0,1.22,3.93,8.09,8.09,0,0,0,4.56,1.39A7.63,7.63,0,0,0,564.55,114Z" fill="#e4e4e0"/><rect x="548.13" y="91.22" width="38.02" height="5.68" rx="0.92" ry="0.92" fill="#6ca8bc"/><path d="M559.39,91.22V87a7.06,7.06,0,0,1,7.06-7.06h3.21A7.06,7.06,0,0,0,562.6,87v4.27Z" fill="#6ca8bc"/><path d="M549,96.89l-.43.28a10.69,10.69,0,0,0-4.44,5.91l-5,16.77a9.29,9.29,0,0,0,8.9,12h26.74a9.29,9.29,0,0,0,9.09-11.21l-3.58-16.94a10.74,10.74,0,0,0-4.66-6.77H549Z" fill="#d9d9d9" opacity="0.5"/><g opacity="0.5"><path d="M548.13,106.31a1.13,1.13,0,0,1-.36-.06,1.24,1.24,0,0,1-.83-1.55l.86-2.87a1.25,1.25,0,0,1,2.39.72l-.87,2.87A1.25,1.25,0,0,1,548.13,106.31Z" fill="#fff"/><path d="M543.29,122.29a1.57,1.57,0,0,1-.37-.05,1.25,1.25,0,0,1-.83-1.56l3.48-11.46a1.24,1.24,0,1,1,2.38.72l-3.47,11.47A1.25,1.25,0,0,1,543.29,122.29Z" fill="#fff"/></g><path d="M332,236.89,334,195.15,322.89,136a21.64,21.64,0,0,1,14.89,16.12l6.93,31.91a65.9,65.9,0,0,1,1,22.36l-4.24,33.11v6.34a6.79,6.79,0,0,1-4.08,6.23l-7.27,3.17-3.94-5.91,1.45-5-2.7-2.11Z" fill="#f0bf9c"/><path d="M322.89,136l.8.24a21.62,21.62,0,0,1,14.58,14.9l7.19,25.76-14.69,1Z" fill="#5297f4"/><polygon points="343.19 177.08 330.77 177.92 332.13 185.17 343.74 179.57 343.19 177.08" fill="#422c4f"/><polygon points="335.08 234.74 326.77 374.89 306 374.89 303.27 236.75 335.08 234.74" fill="#5dabff"/><path d="M303.27,236.75l31.81-2-.84,14.11c-1.32.35-2.66.66-4,.93-.8.17-1.59.32-2.39.47A19.89,19.89,0,0,0,312,266.49L304.7,309l-1.12-56.54h0Z" fill="#5297f4"/><path d="M323.35,387H308.42l1.22-12.07h15l.52,1.29a11.26,11.26,0,0,0,3.8,4.92,18.22,18.22,0,0,0-2.4,1.35A6.9,6.9,0,0,0,323.35,387Z" fill="#f0bf9c"/><path d="M323.35,387a6.9,6.9,0,0,1,3.19-4.51,18.22,18.22,0,0,1,2.4-1.35,11,11,0,0,0,2.1,1.23l8.51,3.82a11.31,11.31,0,0,1,6.53,8.38H307.66l.76-7.57Z" fill="#5297f4"/><polygon points="324.62 374.89 309.64 374.89 309.13 379.97 325.14 376.18 324.62 374.89" fill="#422c4f"/><polygon points="309.35 234.5 297.28 374.89 276.51 374.89 273.79 236.75 309.35 234.5" fill="#5dabff"/><path d="M274,249.15l-.24-12.4,35.56-2.25-1.55,17.93A132.25,132.25,0,0,1,274,249.15Z" fill="#5297f4"/><path d="M282.16,360.65c-1.51-32-1.78-83.85-.62-115.87C283.05,276.75,283.33,328.62,282.16,360.65Z" fill="#5297f4"/><path d="M292.62,387H277.69l1.21-12.07h15l.51,1.29a11.36,11.36,0,0,0,3.81,4.92,18.22,18.22,0,0,0-2.4,1.35A6.9,6.9,0,0,0,292.62,387Z" fill="#f0bf9c"/><path d="M292.62,387a6.9,6.9,0,0,1,3.19-4.51,18.22,18.22,0,0,1,2.4-1.35,11.24,11.24,0,0,0,2.09,1.23l8.51,3.82a11.32,11.32,0,0,1,6.54,8.38H276.93l.76-7.57Z" fill="#5dabff"/><polygon points="293.89 374.89 278.9 374.89 278.39 379.97 294.4 376.18 293.89 374.89" fill="#422c4f"/><path d="M315.24,138.55a32.9,32.9,0,0,0,13.77-7A11.13,11.13,0,0,0,332,119l-.27-.65a17.57,17.57,0,0,1-.68-10.68c1.06-4.34,1.54-8.81.42-13.08A18.32,18.32,0,0,0,320,82.38a23.27,23.27,0,0,0-16.95.79c-2.77-2.08-7.51-1.51-10.33.5s-4.56,5.21-5.8,8.44a42.31,42.31,0,0,0-2.71,12.56,23.53,23.53,0,0,1-4.16,12l-.09.13a13.07,13.07,0,0,0,2.44,17.61,28.18,28.18,0,0,0,8.85,4.78C298.61,141.58,307.71,140.3,315.24,138.55Z" fill="#422c4f"/><path d="M310.57,89.9a36.92,36.92,0,0,1,7.88,2.71,36.45,36.45,0,0,1,7.21,4.17,20.31,20.31,0,0,1-15.09-6.88Z" fill="#454f6b"/><path d="M310,87.78A12.28,12.28,0,0,1,322.55,89a57.93,57.93,0,0,1-6.31-.38A58.37,58.37,0,0,1,310,87.78Z" fill="#454f6b"/><path d="M292.39,100.72a23.64,23.64,0,0,1,10.94-9.21A23.64,23.64,0,0,1,292.39,100.72Z" fill="#454f6b"/><path d="M310.5,133.33,322.89,136a13.55,13.55,0,0,1,10.64,12.32l.13,1.88a42.58,42.58,0,0,0,4.49,16.35h0a12.29,12.29,0,0,1-1.91,13.88h0a11.19,11.19,0,0,0-2.87,8.73l5.31,49.91h0a215.62,215.62,0,0,1-61.24,1.79l-10.37-1.18,4.19-19.62a176.39,176.39,0,0,0,3.17-52.66l-1.56-17.31a13.5,13.5,0,0,1,11.3-14.54l13.92-2.24Z" fill="#5dabff"/><path d="M284.07,142.66a23.09,23.09,0,0,1,3.45,12.16v3.38l36.12,7.85-6.84,58.79-32.05-4.24A26.41,26.41,0,0,0,271,222.44l-.27.12.53-2.48a176.44,176.44,0,0,0,3.17-52.67l-1.56-17.3a13.49,13.49,0,0,1,4.8-11.57l6.4,4.12Z" fill="#5297f4"/><path d="M294.1,153.72c4.49-.93,10.39-1.46,16-2.81a44.87,44.87,0,0,0,8-2.7,34.18,34.18,0,0,0,6.48-3.88,19.07,19.07,0,0,1-5.7,5.31,28,28,0,0,1-8.29,3.39A48.63,48.63,0,0,1,294.1,153.72Z" fill="#5297f4"/><path d="M289.16,140.15a47.91,47.91,0,0,0,10,4.46,46.58,46.58,0,0,0,10.79,1.83,22,22,0,0,1-20.78-6.29Z" fill="#5297f4"/><path d="M275.59,231.19c4.12.78,8.86,1.58,13.94,2.19s10.5,1,15.92,1.12,10.85-.08,15.95-.48,9.87-1,14-1.62a87.64,87.64,0,0,1-13.85,3.08,100.3,100.3,0,0,1-32.25-.65A88.41,88.41,0,0,1,275.59,231.19Z" fill="#5297f4"/><path d="M294.14,228.29c2.63.09,5.6.13,8.73-.06a67.15,67.15,0,0,0,19.07-3.83c3-1,5.68-2.22,8.07-3.32a31.91,31.91,0,0,1-7.34,5,38.18,38.18,0,0,1-19.81,4A32.34,32.34,0,0,1,294.14,228.29Z" fill="#5297f4"/><rect x="281.61" y="162.71" width="37.95" height="54.62" transform="translate(567.38 425.14) rotate(-170.91)" fill="#bd6c67"/><path d="M280,137h0a13.59,13.59,0,0,1,3.82,14.28L272,187.93l35,3.54,4.08-2.37a3.39,3.39,0,0,1,4.9,1.79l.56,1.56,3.78,1A2.36,2.36,0,0,1,322,196h0a2.34,2.34,0,0,1-1.71,2l-1.29.36a2.39,2.39,0,0,0-1.27.89l-3.72,5.11a4.94,4.94,0,0,1-6.93,1.07l-5.41-4-36.58-2.07a9.87,9.87,0,0,1-8.91-12.64l9.95-33.68A25.82,25.82,0,0,1,280,137Z" fill="#f0bf9c"/><polygon points="274.78 179.16 259.12 176.93 258.67 178.45 273.01 184.63 274.78 179.16" fill="#422c4f"/><path d="M280,137l.53.47a13.63,13.63,0,0,1,4.1,13.3l-7,28.82-21.8-3.12,9.87-25a25.84,25.84,0,0,1,13.05-13.9Z" fill="#5dabff"/><path d="M318.82,114.34a5,5,0,1,0,5-5A5,5,0,0,0,318.82,114.34Z" fill="#eba588"/><path d="M321,114.34a2.82,2.82,0,1,0,2.82-2.82A2.81,2.81,0,0,0,321,114.34Z" fill="#e78882"/><path d="M298.09,121.67V118.2H310.5V132a12.42,12.42,0,0,1-8.78-3.95A16.43,16.43,0,0,1,298.09,121.67Z" fill="#422c4f"/><path d="M301.72,128A12.42,12.42,0,0,0,310.5,132v3.23h0a11.72,11.72,0,0,1-12.41,0h0V121.67A16.43,16.43,0,0,0,301.72,128Z" fill="#f0bf9c"/><path d="M326.18,105.09l-3.82,14.1a12.12,12.12,0,0,1-5.86,7.45h0a13.87,13.87,0,0,1-7.68,1.68h0a13.94,13.94,0,0,1-8-3.29l-.88-.76a12.06,12.06,0,0,1-4.16-7.73l-.94-7.53h0a21.06,21.06,0,0,0,10-9.72L306.4,96l6.44,4.93A19.81,19.81,0,0,0,324.06,105Z" fill="#f0bf9c"/><path d="M308.85,102.74a5.93,5.93,0,0,1,4.85,2l-9.4.61A5.88,5.88,0,0,1,308.85,102.74Z" fill="#422c4f"/><path d="M321.7,103.22a4.27,4.27,0,0,0-4,1.78l7.38,1.09A4.6,4.6,0,0,0,321.7,103.22Z" fill="#422c4f"/><path d="M308.19,109.21a1.17,1.17,0,1,0,1.16-1.36A1.27,1.27,0,0,0,308.19,109.21Z" fill="#422c4f"/><path d="M319.5,109.37a1.17,1.17,0,1,0,1.16-1.36A1.27,1.27,0,0,0,319.5,109.37Z" fill="#422c4f"/><rect x="299.97" y="104.97" width="0.83" height="16.17" transform="translate(85.92 351.84) rotate(-68.7)" fill="#f7dd8c"/><rect x="300.17" y="112.17" width="0.83" height="12.95" transform="translate(115.88 383.8) rotate(-76.68)" fill="#f7dd8c"/><path d="M308.83,113.29c3.23-1.53,4.44-3.29,6.85-3.16s2.77,1.67,5.48,3.81a7,7,0,0,1,2.64,6,9.41,9.41,0,0,1-3.3,6.6,8.6,8.6,0,0,1-12.33-.65C304.67,122.21,304.18,115.48,308.83,113.29Z" fill="#fff"/><circle cx="291.47" cy="114.34" r="4.97" fill="#f0bf9c"/><path d="M288.65,114.34a2.82,2.82,0,1,0,2.82-2.82A2.81,2.81,0,0,0,288.65,114.34Z" fill="#eba588"/><path d="M679.91,394.53H70.09a1.54,1.54,0,1,0,0,3.08H679.91a1.54,1.54,0,1,0,0-3.08Z" fill="#5195a8"/><text transform="translate(137.42 450.55)" font-size="42.97" fill="#7592d5" font-family="Montserrat-ExtraBold, Montserrat" font-weight="700">THANK <tspan x="175.13" y="0" letter-spacing="-0.03em">Y</tspan><tspan x="203.62" y="0">OU</tspan></text><text transform="translate(424.25 450.55)" font-size="42.97" fill="#56438c" font-family="Montserrat-ExtraBold, Montserrat" font-weight="700">HEROES</text><polygon points="105.63 430 96.18 430 96.18 420.55 85.08 420.55 85.08 430 75.63 430 75.63 441.1 85.08 441.1 85.08 450.55 96.18 450.55 96.18 441.1 105.63 441.1 105.63 430" fill="#cc6164"/><polygon points="674.37 430 664.92 430 664.92 420.55 653.82 420.55 653.82 430 644.37 430 644.37 441.1 653.82 441.1 653.82 450.55 664.92 450.55 664.92 441.1 674.37 441.1 674.37 430" fill="#cc6164"/></g></svg>