<svg xmlns="http://www.w3.org/2000/svg" xmlns:xlink="http://www.w3.org/1999/xlink" viewBox="0 0 576 288"><defs><linearGradient id="linear-gradient" x1="611.94" y1="371.71" x2="-4.06" y2="-61.29" gradientUnits="userSpaceOnUse"><stop offset="0" stop-color="#fff"/><stop offset="0.49" stop-color="#b7d6de"/><stop offset="1" stop-color="#fff"/></linearGradient><clipPath id="clip-path"><rect width="576" height="288" fill="url(#linear-gradient)"/></clipPath></defs><title>bkg3_1</title><g id="Layer_2" data-name="Layer 2"><g id="Layer_1-2" data-name="Layer 1"><rect width="576" height="288" fill="url(#linear-gradient)"/><g clip-path="url(#clip-path)"><polygon points="417.44 204.84 417.5 204.88 417.44 204.91 417.44 204.84" fill="#fff"/><polygon points="401.96 204.88 402.31 204.68 402.31 205.08 401.96 204.88" fill="#fff"/><polygon points="424.72 191.65 425.27 191.34 425.27 191.97 424.72 191.65" fill="#fff"/><polygon points="394.11 190.89 395.44 191.65 394.11 192.42 394.11 190.89" fill="#fff"/><polygon points="379.19 218.1 379.34 218.01 379.34 218.18 379.19 218.1" fill="#fff"/><polygon points="416.93 177.52 418.51 178.43 416.93 179.35 416.93 177.52" fill="#fff"/><polygon points="400.81 178.43 402.88 177.23 402.88 179.63 400.81 178.43" fill="#fff"/><polygon points="378.12 191.65 379.88 190.64 379.88 192.67 378.12 191.65" fill="#fff"/><polygon points="371.27 204.21 372.42 204.88 371.27 205.54 371.27 204.21" fill="#fff"/><polygon points="440.3 191.56 440.47 191.65 440.3 191.75 440.3 191.56" fill="#fff"/><polygon points="439.82 164.28 441.44 165.21 439.82 166.14 439.82 164.28" fill="#fff"/><polygon points="423.53 165.21 425.87 163.86 425.87 166.56 423.53 165.21" fill="#fff"/><polygon points="393.36 163.13 396.95 165.21 393.36 167.29 393.36 163.13" fill="#fff"/><polygon points="376.47 165.21 380.7 162.77 380.7 167.66 376.47 165.21" fill="#fff"/><polygon points="370.58 176.57 373.8 178.43 370.58 180.29 370.58 176.57" fill="#fff"/><polygon points="355.11 204.88 357.03 203.77 357.03 205.98 355.11 204.88" fill="#fff"/><polygon points="348.28 217.27 349.71 218.1 348.28 218.92 348.28 217.27" fill="#fff"/><polygon points="356.24 231.32 356.46 231.19 356.46 231.45 356.24 231.32" fill="#fff"/><polygon points="447.67 178.43 448.15 178.15 448.15 178.71 447.67 178.43" fill="#fff"/><polygon points="446.61 151.99 448.68 150.79 448.68 153.19 446.61 151.99" fill="#fff"/><polygon points="416.16 149.73 420.06 151.99 416.16 154.25 416.16 149.73" fill="#fff"/><polygon points="399.04 151.99 403.76 149.26 403.76 154.72 399.04 151.99" fill="#fff"/><polygon points="369.62 148.46 375.73 151.99 369.62 155.52 369.62 148.46" fill="#fff"/><polygon points="353.77 178.43 357.7 176.16 357.7 180.71 353.77 178.43" fill="#fff"/><polygon points="347.68 189.79 350.91 191.65 347.68 193.52 347.68 189.79" fill="#fff"/><polygon points="331.89 218.1 334.29 216.71 334.29 219.49 331.89 218.1" fill="#fff"/><polygon points="463.25 178.43 463.26 178.43 463.25 178.44 463.25 178.43" fill="#fff"/><polygon points="439.21 136.78 442.65 138.77 439.21 140.76 439.21 136.78" fill="#fff"/><polygon points="422.05 138.77 426.61 136.13 426.61 141.4 422.05 138.77" fill="#fff"/><polygon points="392.44 135.09 398.8 138.77 392.44 142.44 392.44 135.09" fill="#fff"/><polygon points="374.61 138.77 381.63 134.71 381.63 142.83 374.61 138.77" fill="#fff"/><polygon points="351.8 151.99 358.68 148.02 358.68 155.96 351.8 151.99" fill="#fff"/><polygon points="346.82 161.86 352.63 165.21 346.82 168.56 346.82 161.86" fill="#fff"/><polygon points="330.62 191.65 334.93 189.17 334.93 194.14 330.62 191.65" fill="#fff"/><polygon points="324.51 202.54 328.56 204.88 324.51 207.21 324.51 202.54" fill="#fff"/><polygon points="325.14 230.09 327.28 231.32 325.14 232.55 325.14 230.09" fill="#fff"/><polygon points="333.02 244.54 333.72 244.14 333.72 244.94 333.02 244.54" fill="#fff"/><polygon points="470.68 165.21 471 165.03 471 165.39 470.68 165.21" fill="#fff"/><polygon points="462.84 151.27 464.1 151.99 462.84 152.71 462.84 151.27" fill="#fff"/><polygon points="462.35 123.98 465.07 125.55 462.35 127.11 462.35 123.98" fill="#fff"/><polygon points="445.54 125.55 449.22 123.42 449.22 127.67 445.54 125.55" fill="#fff"/><polygon points="415.44 122.06 421.49 125.55 415.44 129.04 415.44 122.06" fill="#fff"/><polygon points="397.51 125.55 404.53 121.5 404.53 129.6 397.51 125.55" fill="#fff"/><polygon points="368.84 120.67 377.29 125.55 368.84 130.42 368.84 120.67" fill="#fff"/><polygon points="350.37 125.55 359.4 120.33 359.4 130.76 350.37 125.55" fill="#fff"/><polygon points="345.96 133.93 354.35 138.77 345.96 143.61 345.96 133.93" fill="#fff"/><polygon points="328.96 165.21 335.76 161.28 335.76 169.14 328.96 165.21" fill="#fff"/><polygon points="323.81 174.89 329.94 178.43 323.81 181.97 323.81 174.89" fill="#fff"/><polygon points="306.82 204.88 312.48 201.61 312.48 208.14 306.82 204.88" fill="#fff"/><polygon points="301.11 214.9 306.65 218.1 301.11 221.3 301.11 214.9" fill="#fff"/><polygon points="308.14 231.32 311.81 229.2 311.81 233.44 308.14 231.32" fill="#fff"/><polygon points="325.68 257.46 326.2 257.76 325.68 258.06 325.68 257.46" fill="#fff"/><polygon points="469.83 138.77 471.42 137.85 471.42 139.69 469.83 138.77" fill="#fff"/><polygon points="468.97 112.32 471.85 110.66 471.85 113.99 468.97 112.32" fill="#fff"/><polygon points="438.64 109.35 443.79 112.32 438.64 115.3 438.64 109.35" fill="#fff"/><polygon points="420.86 112.32 427.21 108.66 427.21 115.99 420.86 112.32" fill="#fff"/><polygon points="391.8 107.55 400.07 112.32 391.8 117.1 391.8 107.55" fill="#fff"/><polygon points="373.31 112.32 382.28 107.15 382.28 117.5 373.31 112.32" fill="#fff"/><polygon points="345.47 106.63 355.34 112.32 345.47 118.02 345.47 106.63" fill="#fff"/><polygon points="327.41 138.77 336.53 133.51 336.53 144.03 327.41 138.77" fill="#fff"/><polygon points="322.98 147.01 331.61 151.99 322.98 156.97 322.98 147.01" fill="#fff"/><polygon points="305.49 178.43 313.14 174.02 313.14 182.85 305.49 178.43" fill="#fff"/><polygon points="300.48 187.37 307.9 191.65 300.48 195.94 300.48 187.37" fill="#fff"/><polygon points="282.65 218.1 290.21 213.74 290.21 222.46 282.65 218.1" fill="#fff"/><polygon points="301.8 242.54 305.27 244.54 301.8 246.54 301.8 242.54" fill="#fff"/><polygon points="309.42 257.76 311.17 256.75 311.17 258.77 309.42 257.76" fill="#fff"/><polygon points="485.9 138.31 486.68 138.77 485.9 139.22 485.9 138.31" fill="#fff"/><polygon points="461.92 96.79 465.93 99.1 461.92 101.42 461.92 96.79" fill="#fff"/><polygon points="444.58 99.1 449.7 96.15 449.7 102.06 444.58 99.1" fill="#fff"/><polygon points="414.95 94.77 422.46 99.1 414.95 103.44 414.95 94.77" fill="#fff"/><polygon points="396.54 99.1 405.01 94.21 405.01 104 396.54 99.1" fill="#fff"/><polygon points="368.42 93.49 378.13 99.1 368.42 104.71 368.42 93.49" fill="#fff"/><polygon points="349.69 99.1 359.74 93.3 359.74 104.91 349.69 99.1" fill="#fff"/><polygon points="326.57 112.32 336.95 106.34 336.95 118.31 326.57 112.32" fill="#fff"/><polygon points="322.46 119.66 332.65 125.55 322.46 131.43 322.46 119.66" fill="#fff"/><polygon points="304.1 151.99 313.83 146.37 313.83 157.61 304.1 151.99" fill="#fff"/><polygon points="299.79 159.73 309.29 165.21 299.79 170.69 299.79 159.73" fill="#fff"/><polygon points="281.45 191.65 290.81 186.25 290.81 197.05 281.45 191.65" fill="#fff"/><polygon points="276.86 199.33 286.46 204.88 276.86 210.42 276.86 199.33" fill="#fff"/><polygon points="277.51 226.92 285.14 231.32 277.51 235.72 277.51 226.92" fill="#fff"/><polygon points="284.15 244.54 289.46 241.47 289.46 247.61 284.15 244.54" fill="#fff"/><polygon points="302.44 270.1 303.98 270.99 302.44 271.87 302.44 270.1" fill="#fff"/><polygon points="310.38 284.21 310.69 284.03 310.69 284.38 310.38 284.21" fill="#fff"/><polygon points="493.14 125.55 494.12 124.98 494.12 126.11 493.14 125.55" fill="#fff"/><polygon points="485.5 111.18 487.49 112.32 485.5 113.47 485.5 111.18" fill="#fff"/><polygon points="485.14 84.12 488.19 85.88 485.14 87.64 485.14 84.12" fill="#fff"/><polygon points="468.18 85.88 472.25 83.53 472.25 88.23 468.18 85.88" fill="#fff"/><polygon points="438.26 82.25 444.55 85.88 438.26 89.51 438.26 82.25" fill="#fff"/><polygon points="420.11 85.88 427.58 81.57 427.58 90.2 420.11 85.88" fill="#fff"/><polygon points="391.51 80.61 400.65 85.88 391.51 91.15 391.51 80.61" fill="#fff"/><polygon points="372.8 85.88 382.54 80.26 382.54 91.51 372.8 85.88" fill="#fff"/><polygon points="345.31 79.91 355.65 85.88 345.31 91.86 345.31 79.91" fill="#fff"/><polygon points="326.47 85.88 337 79.81 337 91.96 326.47 85.88" fill="#fff"/><polygon points="322.29 92.92 333 99.1 322.29 105.29 322.29 92.92" fill="#fff"/><polygon points="303.39 125.55 314.19 119.31 314.19 131.78 303.39 125.55" fill="#fff"/><polygon points="299.35 132.52 310.17 138.77 299.35 145.02 299.35 132.52" fill="#fff"/><polygon points="280.27 165.21 291.4 158.78 291.4 171.64 280.27 165.21" fill="#fff"/><polygon points="276.29 171.9 287.6 178.43 276.29 184.96 276.29 171.9" fill="#fff"/><polygon points="257.07 204.88 268.65 198.19 268.65 211.56 257.07 204.88" fill="#fff"/><polygon points="253.24 211.32 264.99 218.1 253.24 224.88 253.24 211.32" fill="#fff"/><polygon points="258.34 231.32 268.01 225.74 268.01 236.9 258.34 231.32" fill="#fff"/><polygon points="278.36 254.83 283.44 257.76 278.36 260.7 278.36 254.83" fill="#fff"/><polygon points="285.66 270.99 288.7 269.23 288.7 272.74 285.66 270.99" fill="#fff"/><polygon points="508.93 125.33 509.31 125.55 508.93 125.76 508.93 125.33" fill="#fff"/><polygon points="492.43 99.1 494.48 97.92 494.48 100.29 492.43 99.1" fill="#fff"/><polygon points="491.73 72.66 494.82 70.87 494.82 74.45 491.73 72.66" fill="#fff"/><polygon points="461.55 69.7 466.68 72.66 461.55 75.62 461.55 69.7" fill="#fff"/><polygon points="443.9 72.66 450.04 69.11 450.04 76.21 443.9 72.66" fill="#fff"/><polygon points="414.71 67.89 422.96 72.66 414.71 77.42 414.71 67.89" fill="#fff"/><polygon points="396.13 72.66 405.22 67.41 405.22 77.91 396.13 72.66" fill="#fff"/><polygon points="368.31 66.87 378.35 72.66 368.31 78.45 368.31 66.87" fill="#fff"/><polygon points="349.58 72.66 359.79 66.77 359.79 78.55 349.58 72.66" fill="#fff"/><polygon points="322.39 66.66 332.79 72.66 322.39 78.66 322.39 66.66" fill="#fff"/><polygon points="303.29 99.1 314.24 92.78 314.24 105.42 303.29 99.1" fill="#fff"/><polygon points="299.22 105.85 310.43 112.32 299.22 118.8 299.22 105.85" fill="#fff"/><polygon points="279.8 138.77 291.63 131.94 291.63 145.6 279.8 138.77" fill="#fff"/><polygon points="275.95 144.88 288.26 151.99 275.95 159.09 275.95 144.88" fill="#fff"/><polygon points="256.13 178.43 269.12 170.93 269.12 185.94 256.13 178.43" fill="#fff"/><polygon points="252.75 184.03 265.96 191.65 252.75 199.28 252.75 184.03" fill="#fff"/><polygon points="232.8 218.1 246.43 210.23 246.43 225.97 232.8 218.1" fill="#fff"/><polygon points="254.04 239.15 263.38 244.54 254.04 249.93 254.04 239.15" fill="#fff"/><polygon points="260.15 257.76 267.11 253.75 267.11 261.78 260.15 257.76" fill="#fff"/><polygon points="279.16 282.65 281.85 284.21 279.16 285.76 279.16 282.65" fill="#fff"/><polygon points="516.28 112.32 516.9 111.97 516.9 112.68 516.28 112.32" fill="#fff"/><polygon points="508.61 98.32 509.96 99.1 508.61 99.89 508.61 98.32" fill="#fff"/><polygon points="484.79 57.06 488.91 59.44 484.79 61.82 484.79 57.06" fill="#fff"/><polygon points="467.46 59.44 472.61 56.47 472.61 62.41 467.46 59.44" fill="#fff"/><polygon points="437.99 55.34 445.09 59.44 437.99 63.54 437.99 55.34" fill="#fff"/><polygon points="419.69 59.44 427.79 54.76 427.79 64.11 419.69 59.44" fill="#fff"/><polygon points="391.47 54.09 400.74 59.44 391.47 64.79 391.47 54.09" fill="#fff"/><polygon points="372.84 59.44 382.51 53.85 382.51 65.02 372.84 59.44" fill="#fff"/><polygon points="345.51 53.83 355.24 59.44 345.51 65.05 345.51 53.83" fill="#fff"/><polygon points="327.06 59.44 336.7 53.87 336.7 65.01 327.06 59.44" fill="#fff"/><polygon points="303.75 72.66 314.01 66.73 314.01 78.59 303.75 72.66" fill="#fff"/><polygon points="299.37 79.68 310.12 85.88 299.37 92.08 299.37 79.68" fill="#fff"/><polygon points="279.92 112.32 291.57 105.59 291.57 119.06 279.92 112.32" fill="#fff"/><polygon points="276 118.52 288.17 125.55 276 132.58 276 118.52" fill="#fff"/><polygon points="255.71 151.99 269.33 144.13 269.33 159.85 255.71 151.99" fill="#fff"/><polygon points="252.43 157.03 266.61 165.21 252.43 173.4 252.43 157.03" fill="#fff"/><polygon points="232.03 191.65 246.81 183.12 246.81 200.19 232.03 191.65" fill="#fff"/><polygon points="229.19 196.1 244.39 204.88 229.19 213.65 229.19 196.1" fill="#fff"/><polygon points="229.74 223.49 243.29 231.32 229.74 239.15 229.74 223.49" fill="#fff"/><polygon points="234.38 244.54 245.64 238.04 245.64 251.04 234.38 244.54" fill="#fff"/><polygon points="255.04 267.32 261.38 270.99 255.04 274.64 255.04 267.32" fill="#fff"/><polygon points="262.05 284.21 266.16 281.83 266.16 286.58 262.05 284.21" fill="#fff"/><polygon points="531.89 112.21 532.1 112.32 531.89 112.44 531.89 112.21" fill="#fff"/><polygon points="515.68 85.88 517.2 85 517.2 86.76 515.68 85.88" fill="#fff"/><polygon points="508.28 71.31 510.61 72.66 508.28 74.01 508.28 71.31" fill="#fff"/><polygon points="507.98 44.35 511.21 46.22 507.98 48.08 507.98 44.35" fill="#fff"/><polygon points="491.09 46.22 495.14 43.88 495.14 48.55 491.09 46.22" fill="#fff"/><polygon points="461.3 42.83 467.18 46.22 461.3 49.61 461.3 42.83" fill="#fff"/><polygon points="443.52 46.22 450.23 42.35 450.23 50.09 443.52 46.22" fill="#fff"/><polygon points="414.72 41.47 422.94 46.22 414.72 50.96 414.72 41.47" fill="#fff"/><polygon points="396.41 46.22 405.08 41.21 405.08 51.22 396.41 46.22" fill="#fff"/><polygon points="368.67 41.04 377.64 46.22 368.67 51.4 368.67 41.04" fill="#fff"/><polygon points="350.48 46.22 359.35 41.1 359.35 51.33 350.48 46.22" fill="#fff"/><polygon points="323 41.28 331.56 46.22 323 51.16 323 41.28" fill="#fff"/><polygon points="305.09 46.22 313.34 41.46 313.34 50.98 305.09 46.22" fill="#fff"/><polygon points="299.86 54.08 309.14 59.44 299.86 64.8 299.86 54.08" fill="#fff"/><polygon points="280.43 85.88 291.32 79.6 291.32 92.17 280.43 85.88" fill="#fff"/><polygon points="276.24 92.5 287.68 99.1 276.24 105.71 276.24 92.5" fill="#fff"/><polygon points="256.19 125.55 269.09 118.1 269.09 133 256.19 125.55" fill="#fff"/><polygon points="252.56 130.8 266.35 138.77 252.56 146.73 252.56 130.8" fill="#fff"/><polygon points="231.62 165.21 247.02 156.32 247.02 174.11 231.62 165.21" fill="#fff"/><polygon points="228.92 169.19 244.93 178.43 228.92 187.68 228.92 169.19" fill="#fff"/><polygon points="208 204.88 224.48 195.36 224.48 214.39 208 204.88" fill="#fff"/><polygon points="205.81 208.5 222.43 218.1 205.81 227.69 205.81 208.5" fill="#fff"/><polygon points="208.82 231.32 224.07 222.51 224.07 240.13 208.82 231.32" fill="#fff"/><polygon points="230.67 251.56 241.42 257.76 230.67 263.97 230.67 251.56" fill="#fff"/><polygon points="236.49 270.99 244.59 266.31 244.59 275.66 236.49 270.99" fill="#fff"/><polygon points="539.32 99.1 539.73 98.86 539.73 99.34 539.32 99.1" fill="#fff"/><polygon points="531.64 85.33 532.6 85.88 531.64 86.43 531.64 85.33" fill="#fff"/><polygon points="515.01 59.44 517.53 57.98 517.53 60.89 515.01 59.44" fill="#fff"/><polygon points="514.59 32.99 517.75 31.17 517.75 34.82 514.59 32.99" fill="#fff"/><polygon points="484.61 30.32 489.25 32.99 484.61 35.67 484.61 30.32" fill="#fff"/><polygon points="467.27 32.99 472.7 29.86 472.7 36.14 467.27 32.99" fill="#fff"/><polygon points="438.09 29.07 444.89 32.99 438.09 36.92 438.09 29.07" fill="#fff"/><polygon points="420.19 32.99 427.54 28.76 427.54 37.24 420.19 32.99" fill="#fff"/><polygon points="391.96 28.51 399.74 32.99 391.96 37.48 391.96 28.51" fill="#fff"/><polygon points="374.01 32.99 381.93 28.42 381.93 37.57 374.01 32.99" fill="#fff"/><polygon points="346.25 28.65 353.77 32.99 346.25 37.34 346.25 28.65" fill="#fff"/><polygon points="328.56 32.99 335.96 28.72 335.96 37.27 328.56 32.99" fill="#fff"/><polygon points="300.69 29.07 307.48 32.99 300.69 36.92 300.69 29.07" fill="#fff"/><polygon points="281.65 59.44 290.71 54.21 290.71 64.67 281.65 59.44" fill="#fff"/><polygon points="276.66 66.78 286.85 72.66 276.66 78.54 276.66 66.78" fill="#fff"/><polygon points="257 99.1 268.68 92.36 268.68 105.84 257 99.1" fill="#fff"/><polygon points="252.98 105.09 265.5 112.32 252.98 119.56 252.98 105.09" fill="#fff"/><polygon points="232.18 138.77 246.74 130.36 246.74 147.18 232.18 138.77" fill="#fff"/><polygon points="229.06 143 244.63 151.99 229.06 160.98 229.06 143" fill="#fff"/><polygon points="207.64 178.43 224.66 168.6 224.66 188.26 207.64 178.43" fill="#fff"/><polygon points="205.62 181.72 222.82 191.65 205.62 201.59 205.62 181.72" fill="#fff"/><polygon points="184.51 218.1 201.88 208.07 201.88 228.13 184.51 218.1" fill="#fff"/><polygon points="206.48 236.1 221.1 244.54 206.48 252.98 206.48 236.1" fill="#fff"/><polygon points="210.7 257.76 223.13 250.59 223.13 264.94 210.7 257.76" fill="#fff"/><path d="M234.07,287.13l5.07-2.92L231.81,280v7.12Z" fill="#fff"/><polygon points="554.79 98.98 555 99.1 554.79 99.22 554.79 98.98" fill="#fff"/><polygon points="538.83 72.66 539.97 72 539.97 73.32 538.83 72.66" fill="#fff"/><polygon points="531.35 58.38 533.18 59.44 531.35 60.5 531.35 58.38" fill="#fff"/><polygon points="507.86 17.7 511.45 19.77 507.86 21.84 507.86 17.7" fill="#fff"/><polygon points="491.01 19.77 495.18 17.36 495.18 22.18 491.01 19.77" fill="#fff"/><polygon points="461.45 16.63 466.88 19.77 461.45 22.91 461.45 16.63" fill="#fff"/><polygon points="444.05 19.77 449.96 16.36 449.96 23.19 444.05 19.77" fill="#fff"/><polygon points="415.24 15.93 421.89 19.77 415.24 23.62 415.24 15.93" fill="#fff"/><polygon points="397.68 19.77 404.45 15.87 404.45 23.68 397.68 19.77" fill="#fff"/><polygon points="369.44 15.93 376.1 19.77 369.44 23.62 369.44 15.93" fill="#fff"/><polygon points="352.1 19.77 358.53 16.06 358.53 23.49 352.1 19.77" fill="#fff"/><polygon points="323.86 16.31 329.85 19.77 323.86 23.23 323.86 16.31" fill="#fff"/><polygon points="306.82 19.77 312.47 16.51 312.47 23.04 306.82 19.77" fill="#fff"/><polygon points="283.26 32.99 289.9 29.16 289.9 36.84 283.26 32.99" fill="#fff"/><polygon points="277.44 41.7 285.28 46.22 277.44 50.74 277.44 41.7" fill="#fff"/><polygon points="258.04 72.66 268.17 66.81 268.17 78.51 258.04 72.66" fill="#fff"/><polygon points="253.47 79.5 264.52 85.88 253.47 92.26 253.47 79.5" fill="#fff"/><polygon points="233.31 112.32 246.18 104.9 246.18 119.75 233.31 112.32" fill="#fff"/><polygon points="229.61 117.5 243.55 125.55 229.61 133.59 229.61 117.5" fill="#fff"/><polygon points="208.25 151.99 224.36 142.69 224.36 161.29 208.25 151.99" fill="#fff"/><polygon points="205.68 155.38 222.7 165.21 205.68 175.04 205.68 155.38" fill="#fff"/><polygon points="184.27 191.65 201.99 181.42 201.99 201.88 184.27 191.65" fill="#fff"/><polygon points="182.5 194.57 200.35 204.88 182.5 215.18 182.5 194.57" fill="#fff"/><polygon points="182.84 221.6 199.68 231.32 182.84 241.04 182.84 221.6" fill="#fff"/><polygon points="185.77 244.54 201.25 235.61 201.25 253.47 185.77 244.54" fill="#fff"/><polygon points="207.6 264.48 218.87 270.99 207.6 277.49 207.6 264.48" fill="#fff"/><path d="M221.94,286.91V279.1l-8.85,5.11,4.52,2.6Z" fill="#fff"/><polygon points="562.25 85.88 562.62 85.67 562.62 86.1 562.25 85.88" fill="#fff"/><polygon points="554.61 72.23 555.36 72.66 554.61 73.09 554.61 72.23" fill="#fff"/><polygon points="538.35 46.22 540.21 45.14 540.21 47.3 538.35 46.22" fill="#fff"/><polygon points="531.14 31.57 533.6 32.99 531.14 34.42 531.14 31.57" fill="#fff"/><polygon points="469.43 7.5 472.44 9.24 472.44 7.5 469.43 7.5" fill="#fff"/><polygon points="438.57 7.5 438.57 9.64 442.29 7.5 438.57 7.5" fill="#fff"/><polygon points="423.04 7.5 426.94 9.75 426.94 7.5 423.04 7.5" fill="#fff"/><polygon points="392.69 7.5 392.69 9.78 396.64 7.5 392.69 7.5" fill="#fff"/><polygon points="377.28 7.5 381.12 9.72 381.12 7.5 377.28 7.5" fill="#fff"/><polygon points="347.05 7.5 347.05 9.51 350.53 7.5 347.05 7.5" fill="#fff"/><polygon points="331.88 7.5 335.12 9.37 335.12 7.5 331.88 7.5" fill="#fff"/><polygon points="278.22 16.59 283.73 19.77 278.22 22.95 278.22 16.59" fill="#fff"/><polygon points="259.64 46.22 267.36 41.76 267.36 50.68 259.64 46.22" fill="#fff"/><polygon points="254.2 54.31 263.07 59.44 254.2 64.56 254.2 54.31" fill="#fff"/><polygon points="234.46 85.88 245.6 79.44 245.6 92.32 234.46 85.88" fill="#fff"/><polygon points="230.25 92.17 242.25 99.1 230.25 106.03 230.25 92.17" fill="#fff"/><polygon points="209.56 125.55 223.7 117.38 223.7 133.71 209.56 125.55" fill="#fff"/><polygon points="206.27 129.97 221.52 138.77 206.27 147.57 206.27 129.97" fill="#fff"/><polygon points="184.62 165.21 201.82 155.28 201.82 175.15 184.62 165.21" fill="#fff"/><polygon points="182.53 168.18 200.3 178.43 182.53 188.69 182.53 168.18" fill="#fff"/><polygon points="161.28 204.88 179.14 194.57 179.14 215.18 161.28 204.88" fill="#fff"/><polygon points="159.72 207.99 177.22 218.1 159.72 228.2 159.72 207.99" fill="#fff"/><polygon points="161.86 231.32 178.85 221.51 178.85 241.13 161.86 231.32" fill="#fff"/><polygon points="183.73 249.59 197.89 257.76 183.73 265.94 183.73 249.59" fill="#fff"/><polygon points="188.04 270.99 200.11 264.02 200.11 277.95 188.04 270.99" fill="#fff"/><polygon points="561.88 59.44 562.8 58.91 562.8 59.97 561.88 59.44" fill="#fff"/><polygon points="554.4 45.42 555.77 46.22 554.4 47.01 554.4 45.42" fill="#fff"/><polygon points="538.06 19.77 540.36 18.45 540.36 21.1 538.06 19.77" fill="#fff"/><polygon points="261.13 19.77 266.62 16.61 266.62 22.94 261.13 19.77" fill="#fff"/><polygon points="254.96 29.19 261.55 32.99 254.96 36.8 254.96 29.19" fill="#fff"/><polygon points="236.03 59.44 244.82 54.37 244.82 64.51 236.03 59.44" fill="#fff"/><polygon points="230.91 66.87 240.94 72.66 230.91 78.44 230.91 66.87" fill="#fff"/><polygon points="211.1 99.1 222.93 92.27 222.93 105.94 211.1 99.1" fill="#fff"/><polygon points="207.11 104.98 219.84 112.32 207.11 119.67 207.11 104.98" fill="#fff"/><polygon points="186.02 138.77 201.12 130.05 201.12 147.48 186.02 138.77" fill="#fff"/><polygon points="183.06 142.64 199.25 151.99 183.06 161.34 183.06 142.64" fill="#fff"/><polygon points="161.43 178.43 179.06 168.25 179.06 188.61 161.43 178.43" fill="#fff"/><polygon points="159.66 181.45 177.34 191.65 159.66 201.86 159.66 181.45" fill="#fff"/><polygon points="138.93 218.1 155.97 208.26 155.97 227.94 138.93 218.1" fill="#fff"/><polygon points="160.34 235.51 175.98 244.54 160.34 253.57 160.34 235.51" fill="#fff"/><polygon points="163.71 257.76 177.92 249.56 177.92 265.97 163.71 257.76" fill="#fff"/><path d="M191.76,286.2l3.45-2-10.14-5.86v7.71Z" fill="#fff"/><polygon points="561.55 32.99 562.97 32.18 562.97 33.81 561.55 32.99" fill="#fff"/><polygon points="554.27 18.75 556.04 19.77 554.27 20.79 554.27 18.75" fill="#fff"/><polygon points="237.52 32.99 244.07 29.21 244.07 36.78 237.52 32.99" fill="#fff"/><polygon points="231.75 41.88 239.26 46.22 231.75 50.55 231.75 41.88" fill="#fff"/><polygon points="212.54 72.66 222.21 67.07 222.21 78.25 212.54 72.66" fill="#fff"/><polygon points="207.84 79.79 218.39 85.88 207.84 91.97 207.84 79.79" fill="#fff"/><polygon points="187.87 112.32 200.19 105.21 200.19 119.44 187.87 112.32" fill="#fff"/><polygon points="183.94 117.73 197.48 125.55 183.94 133.36 183.94 117.73" fill="#fff"/><polygon points="162.61 151.99 178.47 142.83 178.47 161.15 162.61 151.99" fill="#fff"/><polygon points="159.97 155.54 176.72 165.21 159.97 174.88 159.97 155.54" fill="#fff"/><polygon points="138.86 191.65 156 181.76 156 201.55 138.86 191.65" fill="#fff"/><polygon points="136.97 195.04 154.01 204.88 136.97 214.71 136.97 195.04" fill="#fff"/><polygon points="137.34 222.12 153.28 231.32 137.34 240.52 137.34 222.12" fill="#fff"/><polygon points="140.18 244.54 155.34 235.78 155.34 253.3 140.18 244.54" fill="#fff"/><polygon points="161.48 263.92 173.71 270.99 161.48 278.04 161.48 263.92" fill="#fff"/><path d="M173.61,285.84l3,.05v-7.61l-10.26,5.93,2.72,1.57C170.58,285.8,172.1,285.81,173.61,285.84Z" fill="#fff"/><polygon points="240.34 7.5 243.48 9.31 243.48 7.5 240.34 7.5" fill="#fff"/><polygon points="232.4 16.57 237.96 19.77 232.4 22.98 232.4 16.57" fill="#fff"/><polygon points="214.16 46.22 221.4 42.04 221.4 50.4 214.16 46.22" fill="#fff"/><polygon points="208.65 54.76 216.76 59.44 208.65 64.12 208.65 54.76" fill="#fff"/><polygon points="189.38 85.88 199.44 80.08 199.44 91.69 189.38 85.88" fill="#fff"/><polygon points="184.85 92.85 195.67 99.1 184.85 105.35 184.85 92.85" fill="#fff"/><polygon points="164.5 125.55 177.53 118.02 177.53 133.07 164.5 125.55" fill="#fff"/><polygon points="160.8 130.54 175.06 138.77 160.8 147 160.8 130.54" fill="#fff"/><polygon points="139.49 165.21 155.69 155.86 155.69 174.56 139.49 165.21" fill="#fff"/><polygon points="137.11 168.83 153.74 178.43 137.11 188.03 137.11 168.83" fill="#fff"/><polygon points="116.5 204.88 132.83 195.45 132.83 214.3 116.5 204.88" fill="#fff"/><polygon points="114.53 209.04 130.21 218.1 114.53 227.15 114.53 209.04" fill="#fff"/><polygon points="117.3 231.32 132.43 222.58 132.43 240.06 117.3 231.32" fill="#fff"/><polygon points="138.26 250.15 151.44 257.76 138.26 265.37 138.26 250.15" fill="#fff"/><polygon points="142.47 270.99 154.19 264.21 154.19 277.75 142.47 270.99" fill="#fff"/><polygon points="215.34 19.77 220.81 16.62 220.81 22.93 215.34 19.77" fill="#fff"/><polygon points="209.31 29.46 215.44 32.99 209.31 36.54 209.31 29.46" fill="#fff"/><polygon points="191.04 59.44 198.61 55.07 198.61 63.81 191.04 59.44" fill="#fff"/><polygon points="185.62 67.75 194.12 72.66 185.62 77.56 185.62 67.75" fill="#fff"/><polygon points="166.46 99.1 176.55 93.28 176.55 104.93 166.46 99.1" fill="#fff"/><polygon points="161.86 105.92 172.95 112.32 161.86 118.73 161.86 105.92" fill="#fff"/><polygon points="141.22 138.77 154.82 130.92 154.82 146.62 141.22 138.77" fill="#fff"/><polygon points="137.74 143.49 152.47 151.99 137.74 160.5 137.74 143.49" fill="#fff"/><polygon points="116.71 178.43 132.72 169.19 132.72 187.68 116.71 178.43" fill="#fff"/><polygon points="114.41 182.4 130.44 191.65 114.41 200.91 114.41 182.4" fill="#fff"/><polygon points="94.56 218.1 109.45 209.5 109.45 226.69 94.56 218.1" fill="#fff"/><polygon points="115.33 236.88 128.6 244.54 115.33 252.2 115.33 236.88" fill="#fff"/><polygon points="119.34 257.76 131.41 250.79 131.41 264.73 119.34 257.76" fill="#fff"/><path d="M146.34,285.64l2.49-1.43-9.26-5.35v6.77Z" fill="#fff"/><polygon points="209.73 7.5 209.73 9.37 212.96 7.5 209.73 7.5" fill="#fff"/><polygon points="192.26 32.99 198 29.68 198 36.31 192.26 32.99" fill="#fff"/><polygon points="186.39 42.64 192.58 46.22 186.39 49.79 186.39 42.64" fill="#fff"/><polygon points="168.07 72.66 175.75 68.23 175.75 77.09 168.07 72.66" fill="#fff"/><polygon points="162.73 80.99 171.2 85.88 162.73 90.77 162.73 80.99" fill="#fff"/><polygon points="143.49 112.32 153.69 106.44 153.69 118.21 143.49 112.32" fill="#fff"/><polygon points="138.81 118.89 150.34 125.55 138.81 132.2 138.81 118.89" fill="#fff"/><polygon points="118.03 151.99 132.06 143.89 132.06 160.09 118.03 151.99" fill="#fff"/><polygon points="114.77 156.57 129.73 165.21 114.77 173.85 114.77 156.57" fill="#fff"/><polygon points="94.21 191.65 109.63 182.75 109.63 200.56 94.21 191.65" fill="#fff"/><polygon points="91.84 196.19 106.88 204.88 91.84 213.56 91.84 196.19" fill="#fff"/><polygon points="92.44 223.67 105.68 231.32 92.44 238.97 92.44 223.67" fill="#fff"/><polygon points="96.39 244.54 108.53 237.53 108.53 251.55 96.39 244.54" fill="#fff"/><polygon points="116.52 265.38 126.23 270.99 116.52 276.59 116.52 265.38" fill="#fff"/><path d="M130.14,285.62v-6.19l-8.26,4.78,2.43,1.4Z" fill="#fff"/><polygon points="194.53 7.5 197.68 9.32 197.68 7.5 194.53 7.5" fill="#fff"/><polygon points="186.82 16.95 191.71 19.77 186.82 22.6 186.82 16.95" fill="#fff"/><polygon points="169.56 46.22 175 43.08 175 49.36 169.56 46.22" fill="#fff"/><polygon points="163.55 55.97 169.56 59.44 163.55 62.91 163.55 55.97" fill="#fff"/><polygon points="145.25 85.88 152.8 81.53 152.8 90.24 145.25 85.88" fill="#fff"/><polygon points="139.9 94.34 148.16 99.1 139.9 103.87 139.9 94.34" fill="#fff"/><polygon points="120.2 125.55 130.98 119.32 130.98 131.77 120.2 125.55" fill="#fff"/><polygon points="115.7 131.74 127.87 138.77 115.7 145.79 115.7 131.74" fill="#fff"/><polygon points="94.85 165.21 109.3 156.87 109.3 173.55 94.85 165.21" fill="#fff"/><polygon points="91.86 169.8 106.83 178.43 91.86 187.07 91.86 169.8" fill="#fff"/><polygon points="71.84 204.88 86.46 196.44 86.46 213.31 71.84 204.88" fill="#fff"/><polygon points="69.35 210.13 83.16 218.1 69.35 226.07 69.35 210.13" fill="#fff"/><polygon points="73.18 231.32 85.79 224.04 85.79 238.6 73.18 231.32" fill="#fff"/><polygon points="93.6 252.13 103.36 257.76 93.6 263.4 93.6 252.13" fill="#fff"/><polygon points="98.83 270.99 107.31 266.09 107.31 275.88 98.83 270.99" fill="#fff"/><polygon points="170.32 19.77 174.62 17.29 174.62 22.26 170.32 19.77" fill="#fff"/><polygon points="164.09 30.46 168.48 32.99 164.09 35.53 164.09 30.46" fill="#fff"/><polygon points="146.89 59.44 151.98 56.5 151.98 62.38 146.89 59.44" fill="#fff"/><polygon points="140.73 69.33 146.5 72.66 140.73 75.99 140.73 69.33" fill="#fff"/><polygon points="122.5 99.1 129.83 94.87 129.83 103.33 122.5 99.1" fill="#fff"/><polygon points="116.93 107.43 125.41 112.32 116.93 117.22 116.93 107.43" fill="#fff"/><polygon points="96.73 138.77 108.36 132.06 108.36 145.48 96.73 138.77" fill="#fff"/><polygon points="92.53 144.5 105.5 151.99 92.53 159.47 92.53 144.5" fill="#fff"/><polygon points="71.83 178.43 86.46 169.99 86.46 186.88 71.83 178.43" fill="#fff"/><polygon points="69.06 183.19 83.73 191.65 69.06 200.12 69.06 183.19" fill="#fff"/><polygon points="49.59 218.1 63.23 210.22 63.23 225.97 49.59 218.1" fill="#fff"/><polygon points="70.42 238.42 81.02 244.54 70.42 250.66 70.42 238.42" fill="#fff"/><polygon points="75.65 257.76 84.55 252.62 84.55 262.9 75.65 257.76" fill="#fff"/><path d="M98.91,285.35l2-1.14-6.06-3.5v4.53Z" fill="#fff"/><polygon points="147.91 32.99 151.47 30.94 151.47 35.05 147.91 32.99" fill="#fff"/><polygon points="141.43 44.11 145.09 46.22 141.43 48.33 141.43 44.11" fill="#fff"/><polygon points="124.21 72.66 128.98 69.91 128.98 75.41 124.21 72.66" fill="#fff"/><polygon points="117.89 82.66 123.48 85.88 117.89 89.11 117.89 82.66" fill="#fff"/><polygon points="99.34 112.32 107.06 107.87 107.06 116.78 99.34 112.32" fill="#fff"/><polygon points="93.7 120.09 103.15 125.55 93.7 131 93.7 120.09" fill="#fff"/><polygon points="73.17 151.99 85.79 144.7 85.79 159.28 73.17 151.99" fill="#fff"/><polygon points="69.38 157.29 83.09 165.21 69.38 173.13 69.38 157.29" fill="#fff"/><polygon points="48.96 191.65 63.55 183.23 63.55 200.08 48.96 191.65" fill="#fff"/><polygon points="46.23 196.53 60.69 204.88 46.23 213.22 46.23 196.53" fill="#fff"/><polygon points="47.04 224.36 59.08 231.32 47.04 238.27 47.04 224.36" fill="#fff"/><polygon points="51.89 244.54 62.08 238.66 62.08 250.42 51.89 244.54" fill="#fff"/><polygon points="71.69 267.06 78.48 270.99 71.69 274.91 71.69 267.06" fill="#fff"/><path d="M83.35,284.82v-3.67l-5.29,3.06.72.41Z" fill="#fff"/><polygon points="141.73 18.18 144.5 19.77 141.73 21.37 141.73 18.18" fill="#fff"/><polygon points="125.52 46.22 128.32 44.6 128.32 47.84 125.52 46.22" fill="#fff"/><polygon points="118.69 57.61 121.87 59.44 118.69 61.27 118.69 57.61" fill="#fff"/><polygon points="101.35 85.88 106.05 83.17 106.05 88.59 101.35 85.88" fill="#fff"/><polygon points="94.94 95.8 100.67 99.1 94.94 102.41 94.94 95.8" fill="#fff"/><polygon points="75.59 125.55 84.58 120.35 84.58 130.74 75.59 125.55" fill="#fff"/><polygon points="70.34 132.5 81.18 138.77 70.34 145.03 70.34 132.5" fill="#fff"/><polygon points="49.62 165.21 63.22 157.36 63.22 173.06 49.62 165.21" fill="#fff"/><polygon points="46.23 170.07 60.7 178.43 46.23 186.79 46.23 170.07" fill="#fff"/><polygon points="25.91 204.88 40.72 196.33 40.72 213.42 25.91 204.88" fill="#fff"/><polygon points="23.45 209.96 37.55 218.1 23.45 226.23 23.45 209.96" fill="#fff"/><polygon points="27.61 231.32 39.87 224.24 39.87 238.4 27.61 231.32" fill="#fff"/><polygon points="48.36 253.1 56.44 257.76 48.36 262.43 48.36 253.1" fill="#fff"/><polygon points="54.47 270.99 60.79 267.34 60.79 274.63 54.47 270.99" fill="#fff"/><polygon points="126.07 19.77 128.04 18.64 128.04 20.91 126.07 19.77" fill="#fff"/><polygon points="119.13 31.92 121 32.99 119.13 34.07 119.13 31.92" fill="#fff"/><polygon points="102.93 59.44 105.26 58.1 105.26 60.78 102.93 59.44" fill="#fff"/><polygon points="95.85 70.93 98.85 72.66 95.85 74.39 95.85 70.93" fill="#fff"/><polygon points="78.22 99.1 83.27 96.19 83.27 102.01 78.22 99.1" fill="#fff"/><polygon points="71.77 108.55 78.31 112.32 71.77 116.1 71.77 108.55" fill="#fff"/><polygon points="51.62 138.77 62.22 132.65 62.22 144.88 51.62 138.77" fill="#fff"/><polygon points="46.95 144.88 59.26 151.99 46.95 159.09 46.95 144.88" fill="#fff"/><polygon points="25.9 178.43 40.73 169.88 40.73 186.99 25.9 178.43" fill="#fff"/><polygon points="23.07 182.85 38.31 191.65 23.07 200.45 23.07 182.85" fill="#fff"/><polygon points="3.17 218.1 17.74 209.69 17.74 226.5 3.17 218.1" fill="#fff"/><polygon points="24.7 238.55 35.06 244.54 24.7 250.53 24.7 238.55" fill="#fff"/><polygon points="30.4 257.76 38.48 253.1 38.48 262.43 30.4 257.76" fill="#fff"/><polygon points="103.77 32.99 104.84 32.37 104.84 33.62 103.77 32.99" fill="#fff"/><polygon points="96.44 45.5 97.68 46.22 96.44 46.93 96.44 45.5" fill="#fff"/><polygon points="80.02 72.66 82.37 71.31 82.37 74.01 80.02 72.66" fill="#fff"/><polygon points="72.83 83.94 76.2 85.88 72.83 87.83 72.83 83.94" fill="#fff"/><polygon points="54.57 112.32 60.74 108.76 60.74 115.89 54.57 112.32" fill="#fff"/><polygon points="48.26 120.72 56.63 125.55 48.26 130.38 48.26 120.72" fill="#fff"/><polygon points="27.46 151.99 39.95 144.78 39.95 159.2 27.46 151.99" fill="#fff"/><polygon points="23.46 157.09 37.53 165.21 23.46 173.33 23.46 157.09" fill="#fff"/><polygon points="2.41 191.65 18.12 182.58 18.12 200.73 2.41 191.65" fill="#fff"/><polygon points="0 195.78 15.75 204.88 0 213.97 0 195.78" fill="#fff"/><polygon points="0.85 223.7 14.05 231.32 0.85 238.94 0.85 223.7" fill="#fff"/><polygon points="5.71 244.54 16.47 238.33 16.47 250.75 5.71 244.54" fill="#fff"/><polygon points="26.13 267.48 32.2 270.99 26.13 274.49 26.13 267.48" fill="#fff"/><polygon points="96.64 19.41 97.27 19.77 96.64 20.14 96.64 19.41" fill="#fff"/><polygon points="81.15 46.22 81.81 45.84 81.81 46.6 81.15 46.22" fill="#fff"/><polygon points="73.61 58.84 74.64 59.44 73.61 60.04 73.61 58.84" fill="#fff"/><polygon points="56.76 85.88 59.65 84.21 59.65 87.55 56.76 85.88" fill="#fff"/><polygon points="49.65 96.68 53.85 99.1 49.65 101.53 49.65 96.68" fill="#fff"/><polygon points="30.25 125.55 38.55 120.76 38.55 130.33 30.25 125.55" fill="#fff"/><polygon points="24.6 132.63 35.24 138.77 24.6 144.91 24.6 132.63" fill="#fff"/><polygon points="3.3 165.21 17.68 156.91 17.68 173.51 3.3 165.21" fill="#fff"/><polygon points="0.03 169.38 15.7 178.43 0.03 187.49 0.03 169.38" fill="#fff"/><polygon points="2.36 252.76 11.03 257.76 2.36 262.76 2.36 252.76" fill="#fff"/><polygon points="8.67 270.99 14.99 267.34 14.99 274.63 8.67 270.99" fill="#fff"/><polygon points="81.47 19.77 81.64 19.68 81.64 19.87 81.47 19.77" fill="#fff"/><polygon points="73.91 32.92 74.03 32.99 73.91 33.07 73.91 32.92" fill="#fff"/><polygon points="58.26 59.44 58.9 59.07 58.9 59.81 58.26 59.44" fill="#fff"/><polygon points="50.57 71.82 52.02 72.66 50.57 73.5 50.57 71.82" fill="#fff"/><polygon points="33.12 99.1 37.12 96.79 37.12 101.41 33.12 99.1" fill="#fff"/><polygon points="26.2 108.95 32.05 112.32 26.2 115.7 26.2 108.95" fill="#fff"/><polygon points="5.67 138.77 16.49 132.52 16.49 145.01 5.67 138.77" fill="#fff"/><polygon points="0.9 144.45 13.96 151.99 0.9 159.53 0.9 144.45" fill="#fff"/><polygon points="51.05 46.21 51.06 46.22 51.05 46.22 51.05 46.21" fill="#fff"/><polygon points="34.93 72.66 36.21 71.92 36.21 73.4 34.93 72.66" fill="#fff"/><polygon points="27.37 84.52 29.72 85.88 27.37 87.24 27.37 84.52" fill="#fff"/><polygon points="8.97 112.32 14.84 108.93 14.84 115.72 8.97 112.32" fill="#fff"/><polygon points="2.44 120.67 10.88 125.55 2.44 130.42 2.44 120.67" fill="#fff"/><polygon points="28.08 59.31 28.3 59.44 28.08 59.56 28.08 59.31" fill="#fff"/><polygon points="11.37 85.88 13.64 84.57 13.64 87.19 11.37 85.88" fill="#fff"/><polygon points="3.97 96.89 7.8 99.1 3.97 101.32 3.97 96.89" fill="#fff"/><polygon points="12.79 59.44 12.93 59.36 12.93 59.52 12.79 59.44" fill="#fff"/><polygon points="4.9 72.05 5.95 72.66 4.9 73.27 4.9 72.05" fill="#fff"/><polygon points="452.24 272.14 452.34 272.2 452.24 272.26 452.24 272.14" fill="#fff"/><polygon points="459.85 258.98 459.94 258.93 459.94 259.03 459.85 258.98" fill="#fff"/><polygon points="459.64 285.42 460.04 285.19 460.04 285.66 459.64 285.42" fill="#fff"/><polygon points="475.09 258.84 475.33 258.98 475.09 259.12 475.09 258.84" fill="#fff"/><polygon points="482.68 245.76 482.87 245.65 482.87 245.87 482.68 245.76" fill="#fff"/><polygon points="498.04 219.26 498.13 219.31 498.04 219.37 498.04 219.26" fill="#fff"/><polygon points="505.7 206.09 505.71 206.09 505.71 206.1 505.7 206.09" fill="#fff"/><polygon points="474.99 285.1 475.54 285.42 474.99 285.74 474.99 285.1" fill="#fff"/><polygon points="482.46 272.2 482.98 271.91 482.98 272.5 482.46 272.2" fill="#fff"/><polygon points="497.94 245.52 498.34 245.76 497.94 245.99 497.94 245.52" fill="#fff"/><polygon points="505.51 232.53 505.81 232.37 505.81 232.71 505.51 232.53" fill="#fff"/><polygon points="520.91 205.98 521.1 206.09 520.91 206.21 520.91 205.98" fill="#fff"/><polygon points="528.54 192.87 528.64 192.81 528.64 192.93 528.54 192.87" fill="#fff"/><polygon points="497.83 271.78 498.56 272.2 497.83 272.62 497.83 271.78" fill="#fff"/><polygon points="505.29 258.98 505.91 258.62 505.91 259.34 505.29 258.98" fill="#fff"/><polygon points="520.8 232.24 521.31 232.53 520.8 232.83 520.8 232.24" fill="#fff"/><polygon points="528.34 219.31 528.74 219.08 528.74 219.55 528.34 219.31" fill="#fff"/><polygon points="543.8 192.74 544.03 192.87 543.8 193.01 543.8 192.74" fill="#fff"/><polygon points="551.38 179.65 551.57 179.54 551.57 179.76 551.38 179.65" fill="#fff"/><polygon points="505.07 285.42 506.02 284.87 506.02 285.98 505.07 285.42" fill="#fff"/><polygon points="520.69 258.49 521.53 258.98 520.69 259.47 520.69 258.49" fill="#fff"/><polygon points="528.12 245.76 528.85 245.34 528.85 246.18 528.12 245.76" fill="#fff"/><polygon points="543.67 218.96 544.29 219.31 543.67 219.68 543.67 218.96" fill="#fff"/><polygon points="551.16 206.09 551.68 205.8 551.68 206.39 551.16 206.09" fill="#fff"/><polygon points="566.67 179.48 566.97 179.65 566.67 179.82 566.67 179.48" fill="#fff"/><polygon points="574.27 166.43 574.47 166.31 574.47 166.54 574.27 166.43" fill="#fff"/><polygon points="520.58 284.74 521.76 285.42 520.58 286.1 520.58 284.74" fill="#fff"/><polygon points="527.87 272.2 528.97 271.57 528.97 272.84 527.87 272.2" fill="#fff"/><polygon points="543.56 245.21 544.51 245.76 543.56 246.31 543.56 245.21" fill="#fff"/><polygon points="550.95 232.53 551.79 232.05 551.79 233.02 550.95 232.53" fill="#fff"/><polygon points="566.57 205.74 567.19 206.09 566.57 206.45 566.57 205.74" fill="#fff"/><polygon points="574.07 192.87 574.58 192.58 574.58 193.17 574.07 192.87" fill="#fff"/><polygon points="543.44 271.45 544.74 272.2 543.44 272.95 543.44 271.45" fill="#fff"/><polygon points="550.72 258.98 551.9 258.3 551.9 259.66 550.72 258.98" fill="#fff"/><polygon points="566.46 231.98 567.41 232.53 566.46 233.09 566.46 231.98" fill="#fff"/><polygon points="573.85 219.31 574.69 218.83 574.69 219.8 573.85 219.31" fill="#fff"/><polygon points="550.47 285.42 552.03 284.52 552.03 286.32 550.47 285.42" fill="#fff"/><polygon points="566.33 258.21 567.66 258.98 566.33 259.75 566.33 258.21" fill="#fff"/><polygon points="573.62 245.76 574.8 245.08 574.8 246.44 573.62 245.76" fill="#fff"/><polygon points="573.37 272.2 574.93 271.3 574.93 273.1 573.37 272.2" fill="#fff"/></g></g></g></svg>