<svg id="Layer_1" data-name="Layer 1" xmlns="http://www.w3.org/2000/svg" viewBox="0 0 1000 1000"><title>logo</title><path d="M0,518.11C0,404.16,87.48,322.62,205.21,322.62c65.34,0,119.88,23.76,155.52,67l-56.16,51.84c-25.38-29.16-57.24-44.28-95-44.28-70.74,0-121,49.68-121,121s50.23,121,121,121c37.8,0,69.66-15.12,95-44.82l56.16,51.84c-35.64,43.74-90.18,67.5-156.06,67.5C87.48,713.59,0,632.05,0,518.11Z" fill="#007afb"/><path d="M702.78,520.4a40.6,40.6,0,1,1-32.84-73.47L617.25,329.1h-86.4l-168.49,378H452l33.48-81H661l33.48,81h91.8ZM513.56,559.69,573.5,415l59.94,144.73Z" fill="#007afb"/><path d="M827.47,467.58H915V707.11H827.47Z" fill="#007afb"/><rect x="653.52" y="417.83" width="159.57" height="15.36" transform="translate(-67.41 704.16) rotate(-49.31)" fill="#007afb"/><rect x="768.56" y="387.77" width="123.8" height="15.36" transform="translate(1202.37 1236.71) rotate(-139.31)" fill="#007afb"/><rect x="838.76" y="368.61" width="159.57" height="15.36" transform="translate(34.39 827.49) rotate(-49.31)" fill="#007afb"/><circle cx="790.33" cy="359.19" r="29.76" fill="#2e3192" stroke="#231f20" stroke-miterlimit="10" stroke-width="0.21"/><circle cx="970.24" cy="316.17" r="29.76" fill="#2e3192" stroke="#231f20" stroke-miterlimit="10" stroke-width="0.21"/><path d="M698.3,510.37A29.76,29.76,0,1,1,674.42,457a27.48,27.48,0,0,1,4.76-.76,29.76,29.76,0,0,1,19.12,54.18Z" fill="#2e3192"/><path d="M702.78,520.4a40.6,40.6,0,1,1-32.84-73.47l4.48,10a29.75,29.75,0,1,0,23.88,53.42Z" fill="#fff"/><path d="M702.78,520.4l-4.48-10L674.42,457l-4.48-10a41.25,41.25,0,0,1,8.41-1.54,40.6,40.6,0,0,1,24.43,75Z" fill="#2e3192"/></svg>