<svg id="Layer_1" data-name="Layer 1" xmlns="http://www.w3.org/2000/svg" viewBox="0 0 3019.5 3019.5"><title>logo192</title><rect x="71.55" y="673" width="2860" height="1624" fill="#fff"/><path d="M3019.5,763.06V1207.8H2669A246.3,246.3,0,0,0,2733,1039.34c-1.33-134.25-111-243.68-245.27-244.7-137.43-1-249.14,110-249.14,247.21a246.29,246.29,0,0,0,20,97.51l-68.44,68.44H1577c-11-126.3-117.09-225.36-246.26-225.36s-235.2,99.06-246.26,225.36H0V763.06A159.16,159.16,0,0,1,159.16,603.9H2860.33A159.16,159.16,0,0,1,3019.5,763.06Z" fill="#f7941d"/><path d="M1103.49,1327.19,682.73,1747.94a247.48,247.48,0,0,0-283,63.76H0V1207.8H1084.47c-.64,7.19-1,14.49-1,21.86A246.46,246.46,0,0,0,1103.49,1327.19Z" fill="#f1f2f2"/><path d="M1771.14,1811.7H878.43l354.77-354.79a248.23,248.23,0,0,0,186.59,3.45Z" fill="#f1f2f2"/><path d="M2190.08,1207.8l-381.69,381.71L1554.26,1335.4A246.19,246.19,0,0,0,1578,1229.66c0-7.37-.32-14.67-1-21.86Z" fill="#f1f2f2"/><path d="M3019.5,1207.8v603.9H1845.63l92.47-92.47,450.13-450.13A247.51,247.51,0,0,0,2669,1207.8Z" fill="#f1f2f2"/><path d="M3019.5,1811.7v444.73a159.17,159.17,0,0,1-159.17,159.17H159.16A159.16,159.16,0,0,1,0,2256.43V1811.7H399.78A246.17,246.17,0,0,0,338,1974c-.62,135.76,109.77,247.47,245.53,248.38,137.31.92,248.91-110.12,248.91-247.22a246.45,246.45,0,0,0-20-97.51l66-66h892.71l37.25,37.24,29.92-29.93,7.32-7.31Z" fill="#27a645"/><rect x="436.92" y="1571.5" width="1007.02" height="96.93" transform="translate(-870.04 1139.46) rotate(-45)" fill="#007afb"/><rect x="1175.4" y="1428.41" width="781.27" height="96.93" transform="translate(1629.08 3628.54) rotate(-135)" fill="#007afb"/><rect x="1625.98" y="1349.65" width="1007.02" height="96.93" transform="translate(-364.91 1915.27) rotate(-45)" fill="#007afb"/><circle cx="1330.73" cy="1229.66" r="187.81" fill="#2e3192" stroke="#231f20" stroke-miterlimit="10" stroke-width="1.35"/><circle cx="2483.28" cy="1044.32" r="187.81" fill="#2e3192" stroke="#231f20" stroke-miterlimit="10" stroke-width="1.35"/><circle cx="585.22" cy="1975.18" r="187.81" fill="#2e3192" stroke="#231f20" stroke-miterlimit="10" stroke-width="1.35"/></svg>